<svg xmlns="http://www.w3.org/2000/svg" xmlns:xlink="http://www.w3.org/1999/xlink" viewBox="0 0 298 254.08"><defs><style>.cls-1{isolation:isolate;}.cls-2{fill:#f9ca47;}.cls-3{fill:url(#linear-gradient);}.cls-4{fill:url(#linear-gradient-2);}.cls-5{fill:url(#linear-gradient-3);}.cls-10,.cls-45,.cls-50,.cls-55,.cls-6,.cls-68,.cls-69,.cls-70,.cls-75,.cls-8,.cls-81,.cls-9{fill:none;}.cls-6,.cls-75,.cls-8,.cls-9{stroke:#343947;}.cls-45,.cls-50,.cls-55,.cls-6,.cls-69,.cls-70,.cls-75,.cls-8,.cls-81,.cls-9{stroke-miterlimit:10;}.cls-6{stroke-width:0.71px;}.cls-7{fill:url(#linear-gradient-4);}.cls-45,.cls-55,.cls-68,.cls-70,.cls-8,.cls-81{stroke-width:0.52px;}.cls-9{stroke-width:0.52px;}.cls-10{stroke:#3358cc;stroke-width:0.97px;}.cls-10,.cls-68{stroke-linecap:round;stroke-linejoin:round;}.cls-11{fill:url(#linear-gradient-5);}.cls-12,.cls-13,.cls-14,.cls-15,.cls-16,.cls-17,.cls-18{fill:#3358cc;}.cls-12{opacity:0.9;}.cls-13{opacity:0.75;}.cls-14{opacity:0.6;}.cls-15{opacity:0.45;}.cls-16,.cls-19,.cls-52,.cls-53,.cls-54,.cls-56,.cls-59,.cls-60,.cls-71{opacity:0.3;}.cls-17{opacity:0.1;}.cls-20{fill:#6582db;}.cls-21{opacity:0.7;}.cls-22,.cls-26,.cls-28,.cls-30,.cls-32,.cls-34,.cls-36,.cls-38,.cls-40,.cls-42,.cls-44,.cls-72,.cls-74{opacity:0.2;}.cls-23{fill:url(#linear-gradient-6);}.cls-24{fill:url(#linear-gradient-7);}.cls-25{fill:#83b9f7;}.cls-26,.cls-28,.cls-30,.cls-32,.cls-34,.cls-36,.cls-38,.cls-40,.cls-42,.cls-44,.cls-52,.cls-53,.cls-54,.cls-56,.cls-59,.cls-60,.cls-71,.cls-72,.cls-74,.cls-77,.cls-79,.cls-80,.cls-82{mix-blend-mode:multiply;}.cls-26{fill:url(#linear-gradient-8);}.cls-27{fill:url(#linear-gradient-9);}.cls-28{fill:url(#linear-gradient-10);}.cls-29{fill:url(#linear-gradient-11);}.cls-30{fill:url(#linear-gradient-12);}.cls-31{fill:url(#linear-gradient-13);}.cls-32{fill:url(#linear-gradient-14);}.cls-33{fill:url(#linear-gradient-15);}.cls-34{fill:url(#linear-gradient-16);}.cls-35{fill:url(#linear-gradient-17);}.cls-36{fill:url(#linear-gradient-18);}.cls-37{fill:url(#linear-gradient-19);}.cls-38{fill:url(#linear-gradient-20);}.cls-39{fill:url(#linear-gradient-21);}.cls-40{fill:url(#linear-gradient-22);}.cls-41{fill:url(#linear-gradient-23);}.cls-42{fill:url(#linear-gradient-24);}.cls-43{fill:url(#linear-gradient-25);}.cls-44{fill:url(#linear-gradient-26);}.cls-45,.cls-69{stroke:#fff;}.cls-46{fill:url(#linear-gradient-27);}.cls-47{fill:#fff;}.cls-48{fill:#804e00;}.cls-49{fill:#343947;}.cls-50{stroke:#636363;}.cls-50,.cls-69{stroke-width:0.26px;}.cls-51{fill:#ff9c87;}.cls-52{fill:url(#linear-gradient-28);}.cls-53{fill:url(#linear-gradient-29);}.cls-54{fill:url(#linear-gradient-30);}.cls-55{stroke:#27439c;}.cls-57{fill:url(#linear-gradient-31);}.cls-58{fill:url(#linear-gradient-32);}.cls-59{fill:url(#linear-gradient-33);}.cls-60{fill:url(#linear-gradient-34);}.cls-61{fill:#636363;}.cls-62{fill:#0030c2;}.cls-63{fill:#5ec778;}.cls-64{fill:#bababa;}.cls-65{fill:#d1d1d1;}.cls-66{fill:url(#linear-gradient-35);}.cls-67{fill:url(#linear-gradient-36);}.cls-68{stroke:#bababa;}.cls-70{stroke:#276f85;}.cls-71{fill:url(#linear-gradient-37);}.cls-72{fill:url(#linear-gradient-38);}.cls-73{fill:#ffa600;}.cls-74{fill:url(#linear-gradient-39);}.cls-75{stroke-width:0.48px;}.cls-76{fill:#277085;}.cls-77,.cls-79,.cls-80,.cls-82{opacity:0.4;}.cls-77{fill:url(#linear-gradient-40);}.cls-78{fill:#ff005d;}.cls-79{fill:url(#linear-gradient-41);}.cls-80{fill:url(#linear-gradient-42);}.cls-81{stroke:#73002a;}.cls-82{fill:url(#linear-gradient-43);}</style><linearGradient id="linear-gradient" x1="140.76" y1="32.02" x2="224.03" y2="32.02" gradientUnits="userSpaceOnUse"><stop offset="0.33" stop-color="#ffe4a1"/><stop offset="1" stop-color="#ffca44"/></linearGradient><linearGradient id="linear-gradient-2" x1="158.95" y1="146.52" x2="158.95" y2="229.96" gradientUnits="userSpaceOnUse"><stop offset="0" stop-color="#ff8cb6"/><stop offset="0.15" stop-color="#ff91ad"/><stop offset="0.41" stop-color="#ff9f94"/><stop offset="0.73" stop-color="#ffb56b"/><stop offset="1" stop-color="#ffca44"/></linearGradient><linearGradient id="linear-gradient-3" x1="24.91" y1="157.29" x2="78.98" y2="157.29" gradientUnits="userSpaceOnUse"><stop offset="0" stop-color="#5a9e70"/><stop offset="1" stop-color="#ffca44"/></linearGradient><linearGradient id="linear-gradient-4" x1="294.51" y1="182.54" x2="231.88" y2="182.54" xlink:href="#linear-gradient-3"/><linearGradient id="linear-gradient-5" x1="249.5" y1="121.07" x2="249.5" y2="19.02" xlink:href="#linear-gradient-2"/><linearGradient id="linear-gradient-6" x1="156" y1="51.49" x2="156" y2="104.5" gradientUnits="userSpaceOnUse"><stop offset="0" stop-color="#6b9cff"/><stop offset="1" stop-color="#fff"/></linearGradient><linearGradient id="linear-gradient-7" x1="166.58" y1="134.24" x2="150.25" y2="134.24" gradientUnits="userSpaceOnUse"><stop offset="0" stop-color="#6b9cff"/><stop offset="1" stop-color="#5683df"/></linearGradient><linearGradient id="linear-gradient-8" x1="149" y1="122.79" x2="149" y2="141.75" gradientUnits="userSpaceOnUse"><stop offset="0" stop-color="#fff"/><stop offset="1"/></linearGradient><linearGradient id="linear-gradient-9" x1="166.58" y1="125.13" x2="150.25" y2="125.13" xlink:href="#linear-gradient-7"/><linearGradient id="linear-gradient-10" x1="149" y1="113.68" x2="149" y2="132.64" xlink:href="#linear-gradient-8"/><linearGradient id="linear-gradient-11" x1="201.58" y1="152.47" x2="185.25" y2="152.47" xlink:href="#linear-gradient-7"/><linearGradient id="linear-gradient-12" x1="184" y1="141.02" x2="184" y2="159.98" xlink:href="#linear-gradient-8"/><linearGradient id="linear-gradient-13" x1="201.58" y1="143.36" x2="185.25" y2="143.36" xlink:href="#linear-gradient-7"/><linearGradient id="linear-gradient-14" x1="184" y1="131.91" x2="184" y2="150.87" xlink:href="#linear-gradient-8"/><linearGradient id="linear-gradient-15" x1="201.58" y1="115.67" x2="185.25" y2="115.67" xlink:href="#linear-gradient-7"/><linearGradient id="linear-gradient-16" x1="184" y1="104.22" x2="184" y2="123.18" xlink:href="#linear-gradient-8"/><linearGradient id="linear-gradient-17" x1="201.58" y1="106.56" x2="185.25" y2="106.56" xlink:href="#linear-gradient-7"/><linearGradient id="linear-gradient-18" x1="184" y1="95.11" x2="184" y2="114.07" xlink:href="#linear-gradient-8"/><linearGradient id="linear-gradient-19" x1="131.58" y1="152.47" x2="115.25" y2="152.47" xlink:href="#linear-gradient-7"/><linearGradient id="linear-gradient-20" x1="114" y1="141.02" x2="114" y2="159.98" xlink:href="#linear-gradient-8"/><linearGradient id="linear-gradient-21" x1="131.58" y1="143.36" x2="115.25" y2="143.36" xlink:href="#linear-gradient-7"/><linearGradient id="linear-gradient-22" x1="114" y1="131.91" x2="114" y2="150.87" xlink:href="#linear-gradient-8"/><linearGradient id="linear-gradient-23" x1="131.58" y1="115.67" x2="115.25" y2="115.67" xlink:href="#linear-gradient-7"/><linearGradient id="linear-gradient-24" x1="114" y1="104.22" x2="114" y2="123.18" xlink:href="#linear-gradient-8"/><linearGradient id="linear-gradient-25" x1="131.58" y1="106.56" x2="115.25" y2="106.56" xlink:href="#linear-gradient-7"/><linearGradient id="linear-gradient-26" x1="114" y1="95.11" x2="114" y2="114.07" xlink:href="#linear-gradient-8"/><linearGradient id="linear-gradient-27" x1="172.18" y1="58.6" x2="98.42" y2="58.6" gradientUnits="userSpaceOnUse"><stop offset="0" stop-color="#ffe4a1"/><stop offset="1" stop-color="#ffca44"/></linearGradient><linearGradient id="linear-gradient-28" x1="217.38" y1="143.56" x2="224.19" y2="127.98" gradientUnits="userSpaceOnUse"><stop offset="0" stop-color="#fff"/><stop offset="0.12" stop-color="#dadada"/><stop offset="0.45" stop-color="#7e7e7e"/><stop offset="0.71" stop-color="#3a3a3a"/><stop offset="0.9" stop-color="#101010"/><stop offset="1"/></linearGradient><linearGradient id="linear-gradient-29" x1="223.15" y1="128.63" x2="229.03" y2="117.94" xlink:href="#linear-gradient-28"/><linearGradient id="linear-gradient-30" x1="249.62" y1="121.96" x2="249.62" y2="141.64" xlink:href="#linear-gradient-28"/><linearGradient id="linear-gradient-31" x1="227.23" y1="113.96" x2="232.6" y2="101.68" xlink:href="#linear-gradient-28"/><linearGradient id="linear-gradient-32" x1="232.53" y1="104.46" x2="233.25" y2="102.8" xlink:href="#linear-gradient-28"/><linearGradient id="linear-gradient-33" x1="262" y1="81.02" x2="262" y2="109.61" xlink:href="#linear-gradient-28"/><linearGradient id="linear-gradient-34" x1="261.5" y1="85.48" x2="261.5" y2="100.77" xlink:href="#linear-gradient-28"/><linearGradient id="linear-gradient-35" x1="175.5" y1="159.58" x2="175.5" y2="175.61" gradientUnits="userSpaceOnUse"><stop offset="0" stop-color="#6b9cff"/><stop offset="0.01" stop-color="#6d9eff"/><stop offset="0.17" stop-color="#9bf"/><stop offset="0.34" stop-color="#bed4ff"/><stop offset="0.51" stop-color="#dbe7ff"/><stop offset="0.67" stop-color="#eff4ff"/><stop offset="0.84" stop-color="#fbfcff"/><stop offset="1" stop-color="#fff"/></linearGradient><linearGradient id="linear-gradient-36" x1="175.7" y1="165.03" x2="175.7" y2="188.93" xlink:href="#linear-gradient-2"/><linearGradient id="linear-gradient-37" x1="106.5" y1="50.74" x2="106.5" y2="91.26" xlink:href="#linear-gradient-28"/><linearGradient id="linear-gradient-38" x1="105.78" y1="56.08" x2="105.78" y2="80.02" xlink:href="#linear-gradient-8"/><linearGradient id="linear-gradient-39" x1="95.78" y1="71.4" x2="105" y2="71.4" xlink:href="#linear-gradient-8"/><linearGradient id="linear-gradient-40" x1="74.76" y1="157.15" x2="74.76" y2="144.25" xlink:href="#linear-gradient-8"/><linearGradient id="linear-gradient-41" x1="98.8" y1="131.49" x2="90.43" y2="124.74" xlink:href="#linear-gradient-8"/><linearGradient id="linear-gradient-42" x1="78.37" y1="100.05" x2="78.37" y2="124.38" xlink:href="#linear-gradient-8"/><linearGradient id="linear-gradient-43" x1="85.33" y1="193.34" x2="71.82" y2="155.94" xlink:href="#linear-gradient-8"/></defs><title>sustainidaAsset 345</title><g class="cls-1"><g id="Layer_2" data-name="Layer 2"><g id="OBJECTS"><path class="cls-2" d="M46,65V189a18.37,18.37,0,0,0,10.91,16.78L162.05,252.5a18.33,18.33,0,0,0,14.9,0l105.14-46.68A18.37,18.37,0,0,0,293,189V65a18.38,18.38,0,0,0-10.91-16.78L177,1.58a18.33,18.33,0,0,0-14.9,0L56.91,48.26A18.38,18.38,0,0,0,46,65Z"/><path class="cls-3" d="M140.76,42.7H220c6.83,0,4.32-3.4-2.87-5.78s-5.72-12.69-14.73-15.14c-7.28-2-9.53,3.23-17.07,2.52s-11.41-1.17-14.56,1.07c-3.51,2.51-2,9-9,9.53s-12.22,2.61-15.28,5.21A9.8,9.8,0,0,1,140.76,42.7Z"/><path class="cls-4" d="M57.18,221.7s13-8.32,19.57-18.78,9.52-14.47,19-15.75a41.6,41.6,0,0,0,26.24-15.06c6.57-8.38,20.12-23.27,35.77-22.23s30.54,16.52,39.37,23.75,17.49,5.34,22.33,12.78,6.4,16.21,13.76,19.36,24.52,7.6,27.55,15.93Z"/><path class="cls-5" d="M75.89,170.42c-5.32-4.26-7.68,6.56-11.11,6.56s-3.79-3.55-1.13-5.5,10.71-3.9,14-10.29.23-15.25-3.85-14.36-7.27,12.06-11.17,12.77-3.73-3.2-1.07-6S72.34,146.12,73.58,139s-6.91-13-10.11-10.11-.71,14.72-5.5,12.6.18-9.11,2.66-15.55.36-15.85-8.69-15.85-11.17,9.4-8.69,15.85,7.45,13.42,2.66,15.55-2.3-9.76-5.5-12.6-11.35,3-10.11,10.11,9.4,11.71,12.07,14.55,2.83,6.74-1.07,6-7.09-11.89-11.17-12.77-7.1,8-3.85,14.36,11.3,8.34,14,10.29,2.3,5.5-1.13,5.5S33.32,166.16,28,170.42,25.69,185,39,190.81c8.72,3.84,12.94,13.66,12.94,13.66s4.23-9.82,13-13.66C78.19,185,81.21,174.67,75.89,170.42Z"/><line class="cls-6" x1="51.5" y1="114.7" x2="51.5" y2="221.7"/><path class="cls-6" d="M29.59,153.45s0,10.76,22.35,18.21"/><path class="cls-6" d="M29.59,175.44s2.25,7.57,22.35,15.73"/><path class="cls-6" d="M35.63,134.06c.47,5.91,3.66,13.36,16.31,18.09"/><path class="cls-6" d="M74.29,153.45s0,10.76-22.35,18.21"/><path class="cls-6" d="M74.29,175.44S72.05,183,51.94,191.17"/><path class="cls-6" d="M68.26,134.06c-.47,5.91-3.66,13.36-16.32,18.09"/><path class="cls-7" d="M283.35,192.14c-3.9-3.11-5.63,4.81-8.14,4.81s-2.77-2.6-.82-4,7.84-2.85,10.22-7.53.17-11.17-2.82-10.52-5.33,8.83-8.18,9.35-2.73-2.33-.78-4.41,7.92-5.46,8.83-10.65-5.07-9.48-7.4-7.4-.52,10.78-4,9.22.13-6.67,1.95-11.39.26-11.6-6.36-11.6-8.18,6.89-6.37,11.6,5.46,9.83,1.95,11.39-1.69-7.14-4-9.22-8.32,2.21-7.41,7.4,6.89,8.57,8.83,10.65,2.08,4.93-.78,4.41-5.19-8.7-8.18-9.35-5.19,5.85-2.81,10.52,8.27,6.11,10.22,7.53,1.68,4-.83,4-4.24-7.92-8.13-4.81-1.69,10.65,8,14.94c6.38,2.81,9.48,10,9.48,10s3.09-7.19,9.48-10C285,202.79,287.24,195.26,283.35,192.14Z"/><line class="cls-8" x1="265.5" y1="151.7" x2="265.5" y2="221.7"/><path class="cls-8" d="M249.45,179.72s0,7.88,16.37,13.33"/><path class="cls-8" d="M249.45,195.82s1.65,5.54,16.37,11.52"/><path class="cls-8" d="M253.87,165.52c.35,4.33,2.68,9.79,11.95,13.25"/><path class="cls-9" d="M282.18,179.72s0,7.88-16.36,13.33"/><path class="cls-8" d="M282.18,195.82s-1.65,5.54-16.36,11.52"/><path class="cls-8" d="M277.76,165.52c-.34,4.33-2.68,9.79-11.94,13.25"/><line class="cls-10" x1="123.5" y1="173.2" x2="123.5" y2="164.2"/><path class="cls-10" d="M139.5,210.2h32.77A3.23,3.23,0,0,0,175.5,207V199.2"/><path class="cls-11" d="M201,45.31V79a7.2,7.2,0,0,0,4.28,6.58l41.3,18.34a7.24,7.24,0,0,0,5.84,0l41.3-18.34A7.2,7.2,0,0,0,298,79V45.31a7.2,7.2,0,0,0-4.28-6.58l-41.3-18.34a7.24,7.24,0,0,0-5.84,0l-41.3,18.34A7.2,7.2,0,0,0,201,45.31Z"/><polygon class="cls-12" points="270 47.3 260 42.41 260 46.76 270 51.65 280 46.76 280 42.41 270 47.3"/><polygon class="cls-13" points="270 51.68 260 46.79 260 51.14 270 56.03 280 51.14 280 46.79 270 51.68"/><polygon class="cls-14" points="270 56.06 260 51.17 260 55.52 270 60.41 280 55.52 280 51.17 270 56.06"/><polygon class="cls-15" points="270 60.44 260 55.55 260 59.9 270 64.79 280 59.9 280 55.55 270 60.44"/><polygon class="cls-16" points="270 64.82 260 59.93 260 64.28 270 69.17 280 64.28 280 59.93 270 64.82"/><polygon class="cls-17" points="270 69.2 260 64.31 260 68.66 270 73.55 280 68.66 280 64.31 270 69.2"/><polygon class="cls-18" points="270.27 37.55 260.31 42.43 270.27 47.3 280.23 42.43 270.27 37.55"/><polygon class="cls-12" points="229 47.3 219 42.41 219 46.76 229 51.65 239 46.76 239 42.41 229 47.3"/><polygon class="cls-13" points="229 51.68 219 46.79 219 51.14 229 56.03 239 51.14 239 46.79 229 51.68"/><polygon class="cls-14" points="229 56.06 219 51.17 219 55.52 229 60.41 239 55.52 239 51.17 229 56.06"/><polygon class="cls-15" points="229 60.44 219 55.55 219 59.9 229 64.79 239 59.9 239 55.55 229 60.44"/><polygon class="cls-16" points="229 64.82 219 59.93 219 64.28 229 69.17 239 64.28 239 59.93 229 64.82"/><polygon class="cls-17" points="229 69.2 219 64.31 219 68.66 229 73.55 239 68.66 239 64.31 229 69.2"/><polygon class="cls-18" points="229.17 37.55 219.21 42.43 229.17 47.3 239.13 42.43 229.17 37.55"/><g class="cls-19"><path class="cls-20" d="M235,74.7v5.41c0,4,6.72,7.16,15,7.16s15-3.21,15-7.16V74.7Z"/><path class="cls-18" d="M249.72,76.4c-6.28,0-11.65-1.87-13.84-4.51a4.15,4.15,0,0,0-1.07,2.65c0,3.95,6.67,7.15,14.91,7.15s14.91-3.2,14.91-7.15a4.15,4.15,0,0,0-1.07-2.65C261.37,74.53,256,76.4,249.72,76.4Z"/></g><path class="cls-20" d="M235,52.7v5.41c0,4,6.72,7.16,15,7.16s15-3.21,15-7.16V52.7Z"/><g class="cls-21"><path class="cls-20" d="M235,63.7v5.41c0,4,6.72,7.16,15,7.16s15-3.21,15-7.16V63.7Z"/><path class="cls-18" d="M249.72,65.69c-6.28,0-11.65-1.87-13.84-4.51a4.19,4.19,0,0,0-1.07,2.65c0,4,6.67,7.16,14.91,7.16s14.91-3.2,14.91-7.16a4.15,4.15,0,0,0-1.07-2.64C261.37,63.82,256,65.69,249.72,65.69Z"/></g><ellipse class="cls-18" cx="250" cy="52.7" rx="15" ry="7"/><rect class="cls-22" x="97" y="79.7" width="120" height="87"/><rect class="cls-23" x="96" y="78.7" width="120" height="87"/><rect class="cls-20" x="96" y="78.7" width="120" height="10"/><line class="cls-10" x1="151.16" y1="136.7" x2="128.23" y2="147.92"/><line class="cls-10" x1="150.81" y1="120.09" x2="129.08" y2="109.46"/><line class="cls-10" x1="158.26" y1="136.86" x2="180.41" y2="147.7"/><line class="cls-10" x1="158.29" y1="120.09" x2="180.61" y2="109.17"/><polygon class="cls-24" points="154.5 133.92 143 128.29 143 134.56 154.5 140.19 166 134.56 166 128.29 154.5 133.92"/><polygon class="cls-25" points="154.55 122.59 142.98 128.25 154.55 133.91 166.11 128.25 154.55 122.59"/><polygon class="cls-26" points="143 128.03 143 134.58 155 140.45 155 133.9 143 128.03"/><polygon class="cls-27" points="154.5 124.81 143 119.18 143 125.45 154.5 131.08 166 125.45 166 119.18 154.5 124.81"/><polygon class="cls-25" points="154.55 113.48 142.98 119.14 154.55 124.8 166.11 119.14 154.55 113.48"/><polygon class="cls-28" points="143 118.92 143 125.47 155 131.34 155 124.79 143 118.92"/><polygon class="cls-29" points="189.5 152.15 178 146.52 178 152.79 189.5 158.42 201 152.79 201 146.52 189.5 152.15"/><polygon class="cls-25" points="189.8 140.82 178.24 146.48 189.8 152.14 201.36 146.48 189.8 140.82"/><polygon class="cls-30" points="178 146.26 178 152.81 190 158.68 190 152.13 178 146.26"/><polygon class="cls-31" points="189.5 143.03 178 137.41 178 143.68 189.5 149.31 201 143.68 201 137.41 189.5 143.03"/><polygon class="cls-25" points="189.8 131.71 178.24 137.37 189.8 143.03 201.36 137.37 189.8 131.71"/><polygon class="cls-32" points="178 137.15 178 143.69 190 149.57 190 143.02 178 137.15"/><polygon class="cls-33" points="189.5 115.34 178 109.71 178 115.99 189.5 121.62 201 115.99 201 109.71 189.5 115.34"/><polygon class="cls-25" points="189.8 104.02 178.24 109.68 189.8 115.34 201.36 109.68 189.8 104.02"/><polygon class="cls-34" points="178 109.45 178 116 190 121.88 190 115.33 178 109.45"/><polygon class="cls-35" points="189.5 106.23 178 100.6 178 106.88 189.5 112.51 201 106.88 201 100.6 189.5 106.23"/><polygon class="cls-25" points="189.8 94.91 178.24 100.57 189.8 106.23 201.36 100.57 189.8 94.91"/><polygon class="cls-36" points="178 100.34 178 106.89 190 112.77 190 106.22 178 100.34"/><polygon class="cls-37" points="119.5 152.15 108 146.52 108 152.79 119.5 158.42 131 152.79 131 146.52 119.5 152.15"/><polygon class="cls-25" points="119.29 140.82 107.73 146.48 119.29 152.14 130.85 146.48 119.29 140.82"/><polygon class="cls-38" points="108 146.26 108 152.81 120 158.68 120 152.13 108 146.26"/><polygon class="cls-39" points="119.5 143.03 108 137.41 108 143.68 119.5 149.31 131 143.68 131 137.41 119.5 143.03"/><polygon class="cls-25" points="119.29 131.71 107.73 137.37 119.29 143.03 130.85 137.37 119.29 131.71"/><polygon class="cls-40" points="108 137.15 108 143.69 120 149.57 120 143.02 108 137.15"/><polygon class="cls-41" points="119.5 115.34 108 109.71 108 115.99 119.5 121.62 131 115.99 131 109.71 119.5 115.34"/><polygon class="cls-25" points="119.29 104.02 107.73 109.68 119.29 115.34 130.85 109.68 119.29 104.02"/><polygon class="cls-42" points="108 109.45 108 116 120 121.88 120 115.33 108 109.45"/><polygon class="cls-43" points="119.5 106.23 108 100.6 108 106.88 119.5 112.51 131 106.88 131 100.6 119.5 106.23"/><polygon class="cls-25" points="119.29 94.91 107.73 100.57 119.29 106.23 130.85 100.57 119.29 94.91"/><polygon class="cls-44" points="108 100.34 108 106.89 120 112.77 120 106.22 108 100.34"/><path class="cls-45" d="M190,83.34a1.63,1.63,0,1,1-1.62-1.62A1.62,1.62,0,0,1,190,83.34Z"/><circle class="cls-45" cx="198" cy="83.7" r="1.5"/><circle class="cls-45" cx="207" cy="83.7" r="1.5"/><path class="cls-46" d="M175.69,68.7H97.36c-6.46,0-4.08-3.21,2.72-5.47s5.41-12,13.93-14.31c6.88-1.87,9,3.06,16.14,2.38s10.79-1.11,13.77,1c3.32,2.37,1.87,8.49,8.49,9s11.56,2.47,14.45,4.93S175.69,68.7,175.69,68.7Z"/><path class="cls-47" d="M71.14,78.16c-3.55,1.2-4.52,2.17-5.71,5.71-1.2-3.54-2.17-4.51-5.71-5.71C63.26,77,64.23,76,65.43,72.45,66.62,76,67.59,77,71.14,78.16Z"/><path class="cls-47" d="M189.73,61.19c-3.54,1.19-4.51,2.16-5.71,5.71-1.2-3.55-2.17-4.52-5.71-5.71,3.54-1.2,4.51-2.17,5.71-5.72C185.22,59,186.19,60,189.73,61.19Z"/><circle class="cls-47" cx="285.61" cy="146.48" r="5.71"/><path class="cls-47" d="M79.44,67.83a3.59,3.59,0,0,0-2.86,2.85,3.58,3.58,0,0,0-2.85-2.85A3.59,3.59,0,0,0,76.58,65,3.61,3.61,0,0,0,79.44,67.83Z"/><path class="cls-47" d="M181.1,49a3.58,3.58,0,0,0-2.86,2.86A3.58,3.58,0,0,0,175.38,49a3.58,3.58,0,0,0,2.86-2.86A3.58,3.58,0,0,0,181.1,49Z"/><path class="cls-47" d="M285,106.92a3.57,3.57,0,0,0-2.85,2.85,3.58,3.58,0,0,0-2.86-2.85,3.61,3.61,0,0,0,2.86-2.86A3.59,3.59,0,0,0,285,106.92Z"/><path class="cls-48" d="M214.8,214.12a28.09,28.09,0,0,1,.49,7.56l-3.15-.24L212,220.1l-1.5,1.18s-6.14-.12-9.39-3c0,0,8.67-.38,10.52-3.88Z"/><path class="cls-48" d="M251.12,213.87a27.83,27.83,0,0,1,2,7.32l-3.14.37-.38-1.28-1.24,1.44s-6,1.09-9.8-1.11c0,0,8.44-2.06,9.57-5.85Z"/><path class="cls-49" d="M227.13,145.7s-8.8,19-16.44,69h4.66s7.77-14.49,7.51-28.86l11.65-28.18s.39,18.34,1.94,27.79,11,29.25,11,29.25H252s-2.2-22.91-8.16-30.16c0,0,4.29-25.93,1.81-38.84Z"/><path class="cls-50" d="M242.57,151.73l-1.43,34.86s4.74,6.46,9.48,28.54"/><path class="cls-51" d="M220.19,129l-1.68,6.15S209.2,150,208.38,152.75s-.83,5-.26,6.06l2.25.78,1-.82a5.91,5.91,0,0,1,0-3.5,2.59,2.59,0,0,1,1.21,1.94.53.53,0,0,0,.73-.43c.13-.65-.22-3.72-1.23-4.86,0,0,8.73-10.19,10.78-13.47a24.5,24.5,0,0,0,3.15-7.75Z"/><path class="cls-52" d="M220.19,129l-.78,2.84,2.6,7.92c.36-.5.67-.94.89-1.3a24.5,24.5,0,0,0,3.15-7.75Z"/><path class="cls-18" d="M226,114.56c-1.56,1-7,14.56-7,14.56a11,11,0,0,0,7.4,3.38s.83-3.51,1.34-7A18.27,18.27,0,0,0,226,114.56Z"/><path class="cls-53" d="M226,132.45l.24,0c.43-.64,1-4.38,1.64-8.54a18.33,18.33,0,0,0-1.93-9.38c-.72.47-2.27,3.63-3.73,6.89C223.52,125.33,225.45,131.08,226,132.45Z"/><path class="cls-49" d="M222.92,93.84c1.5-1.66,3.9,0,7.66,0s5.63-.21,6.75,1.48.18,3.59,1.13,4.67,2.29,1,2.34,2.55-1.56,2-1.73,3.29.86,2.64-3.68,3.51-6.89,3-9.09,1.69-2-3-2.47-4.63-2.21-2-2.25-3.77,1.3-3.07,1.38-4.41S221.79,95.1,222.92,93.84Z"/><path class="cls-18" d="M237,110.85a71.65,71.65,0,0,1,7.59,2.18,138.91,138.91,0,0,1,1.82,15.36c.33,7,1.17,19,1.17,19a71,71,0,0,0-9.22,1.63c-2.92.91-9.15,2.27-13-.33a119.19,119.19,0,0,0,.71-13.57c-.13-6.23-.78-16.55-.13-20.51C226,114.56,229.13,111.89,237,110.85Z"/><path class="cls-54" d="M242.87,128.39l5.13,7.47V151.5l-1.91,6.74c.35,0,.7.06,1.06.06a15.19,15.19,0,0,0,4.34-.64l-.49-4.84L256.37,133l-2.91-3.85a15.1,15.1,0,0,0-10.59-.76Z"/><path class="cls-51" d="M249.58,129.29l3,4.55-3,18s-2.33,5.52-2,6.56,1.75-2,1.75-2l-.23,3.44a.84.84,0,0,0,1.17.82l2.39-1a1.57,1.57,0,0,0,.94-1.31,13.81,13.81,0,0,0-.69-5.94s5.68-13.79,5.77-18c.09-4-5.68-10-5.68-10Z"/><path class="cls-18" d="M244.58,113c2.77.22,10.33,12.17,10.33,12.17a9.31,9.31,0,0,1-5.82,5.59s-3.45-4.92-5.74-8C240.8,119.3,241.79,112.81,244.58,113Z"/><path class="cls-51" d="M237,110.85s-2-3.42-2.64-4.93c1.21-.52,1.43-3,0-3.51s-1.52,1.56-1.52,1.56a9.43,9.43,0,0,1-.56-1.69,16.26,16.26,0,0,1-5.93-4.41,12.36,12.36,0,0,0-.36,4.54l-1.13,1.21,1.33.22s0,2.44,0,3.57,2.34.43,2.92.94,1.79,4.39,1.79,4.39S232.44,114.13,237,110.85Z"/><line class="cls-55" x1="242.34" y1="120.75" x2="245.85" y2="126.21"/><line class="cls-55" x1="226.08" y1="131.5" x2="225.67" y2="121.11"/><g class="cls-56"><path class="cls-57" d="M232.51,103.14h0s-2.83,4.58-5.53,4.93c.74.12,1.78,0,2.15.28a8.55,8.55,0,0,1,1.09,2.32,1.85,1.85,0,0,0,1-.11c1.59-.77,1.64-6.59,1.64-6.59S232.68,103.64,232.51,103.14Z"/><path class="cls-58" d="M232.83,104l.27-1A2.88,2.88,0,0,0,232.83,104Z"/></g><path class="cls-59" d="M272.75,86.7h-21.5A3.25,3.25,0,0,0,248,90v13.51a3.24,3.24,0,0,0,3.25,3.24H255a6.26,6.26,0,0,1-4,5.43,6.45,6.45,0,0,0,2.37.46,6.33,6.33,0,0,0,6.38-5.89h13a3.24,3.24,0,0,0,3.25-3.24V90A3.25,3.25,0,0,0,272.75,86.7Z"/><path class="cls-47" d="M271.75,85.7h-21.5A3.25,3.25,0,0,0,247,89v13.51a3.24,3.24,0,0,0,3.25,3.24H254a6.26,6.26,0,0,1-4,5.43,6.45,6.45,0,0,0,2.37.46,6.33,6.33,0,0,0,6.38-5.89h13a3.24,3.24,0,0,0,3.25-3.24V89A3.25,3.25,0,0,0,271.75,85.7Z"/><path class="cls-60" d="M266,93.7V91.52a3.88,3.88,0,0,0-2.63-3.72A4,4,0,0,0,258,91.38V93.7h-1v9h9v-9Zm-7-2.32a3,3,0,0,1,4.37-2.47,2.78,2.78,0,0,1,1.63,2.6V93.7h-6Z"/><path class="cls-61" d="M265,95.7h-8V91.39a3.87,3.87,0,0,1,2.63-3.71A4,4,0,0,1,265,91.26Zm-7-2h6V90.42a2.78,2.78,0,0,0-1.63-2.6A3,3,0,0,0,258,90.3Z"/><rect class="cls-2" x="257" y="92.7" width="9" height="9"/><path class="cls-62" d="M262.14,96.62a1.13,1.13,0,1,0-2.26,0,1.14,1.14,0,0,0,.35.81l-.35,2.27h2.26l-.35-2.27A1.1,1.1,0,0,0,262.14,96.62Z"/><line class="cls-50" x1="256" y1="100.7" x2="266" y2="100.7"/><line class="cls-50" x1="256" y1="93.7" x2="266" y2="93.7"/><rect class="cls-47" x="106" y="174.7" width="35" height="11" rx="1.21"/><path class="cls-63" d="M137.65,178.7H126.39a.5.5,0,0,1-.5-.5h0a.5.5,0,0,1,.5-.5h11.26a.5.5,0,0,1,.5.5h0A.5.5,0,0,1,137.65,178.7Z"/><circle class="cls-64" cx="108.5" cy="178.2" r="0.5"/><circle class="cls-64" cx="112.02" cy="178.27" r="0.52"/><path class="cls-64" d="M115.7,178.27a.52.52,0,0,1-.52.52.52.52,0,1,1,0-1A.52.52,0,0,1,115.7,178.27Z"/><path class="cls-64" d="M118.86,178.27a.52.52,0,0,1-.52.52.52.52,0,1,1,0-1A.52.52,0,0,1,118.86,178.27Z"/><circle class="cls-64" cx="108.5" cy="180.2" r="0.5"/><circle class="cls-64" cx="112.02" cy="180.7" r="0.52"/><path class="cls-64" d="M115.7,180.7a.51.51,0,0,1-.52.51.52.52,0,1,1,.52-.51Z"/><path class="cls-64" d="M118.86,180.7a.51.51,0,0,1-.52.51.52.52,0,1,1,.52-.51Z"/><path class="cls-64" d="M109.38,183.12a.52.52,0,0,1-.52.52.52.52,0,0,1,0-1A.52.52,0,0,1,109.38,183.12Z"/><path class="cls-64" d="M112.54,183.12a.52.52,0,0,1-.52.52.52.52,0,0,1,0-1A.52.52,0,0,1,112.54,183.12Z"/><path class="cls-64" d="M115.7,183.12a.52.52,0,0,1-.52.52.52.52,0,1,1,0-1A.52.52,0,0,1,115.7,183.12Z"/><path class="cls-64" d="M118.86,183.12a.52.52,0,0,1-.52.52.52.52,0,1,1,0-1A.52.52,0,0,1,118.86,183.12Z"/><path class="cls-65" d="M106,184.7v.07a.75.75,0,0,0,1,.93h32.13c.66.28,1.21-.26,1.83-.93v-.07Z"/><rect class="cls-47" x="106" y="189.7" width="35" height="11" rx="1.21"/><path class="cls-63" d="M137.66,193.7H126.39a.5.5,0,0,1-.5-.5h0a.5.5,0,0,1,.5-.5h11.27a.51.51,0,0,1,.5.5h0A.5.5,0,0,1,137.66,193.7Z"/><circle class="cls-64" cx="108.5" cy="193.2" r="0.5"/><circle class="cls-64" cx="112.02" cy="193.08" r="0.52"/><path class="cls-64" d="M115.7,193.08a.51.51,0,0,1-.52.51.52.52,0,1,1,.52-.51Z"/><path class="cls-64" d="M118.86,193.08a.51.51,0,0,1-.52.51.52.52,0,1,1,.52-.51Z"/><circle class="cls-64" cx="108.5" cy="195.2" r="0.5"/><circle class="cls-64" cx="112.02" cy="195.5" r="0.52"/><path class="cls-64" d="M115.7,195.5a.52.52,0,0,1-.52.52.52.52,0,0,1,0-1A.52.52,0,0,1,115.7,195.5Z"/><path class="cls-64" d="M118.86,195.5a.52.52,0,0,1-.52.52.52.52,0,1,1,0-1A.52.52,0,0,1,118.86,195.5Z"/><circle class="cls-64" cx="108.5" cy="198.2" r="0.5"/><circle class="cls-64" cx="112.02" cy="197.92" r="0.52"/><path class="cls-64" d="M115.7,197.92a.52.52,0,0,1-.52.52.52.52,0,0,1-.52-.52.53.53,0,0,1,.52-.52A.52.52,0,0,1,115.7,197.92Z"/><path class="cls-64" d="M118.86,197.92a.52.52,0,0,1-.52.52.52.52,0,0,1-.52-.52.53.53,0,0,1,.52-.52A.52.52,0,0,1,118.86,197.92Z"/><path class="cls-65" d="M106,199.7v-.13a.91.91,0,0,0,1,1.13h32.13c.66.08,1.21-.46,1.83-1.13v.13Z"/><rect class="cls-47" x="106" y="204.7" width="35" height="11" rx="1.21"/><path class="cls-63" d="M137.66,208.7H126.39a.5.5,0,0,1-.5-.5h0a.5.5,0,0,1,.5-.5h11.27a.51.51,0,0,1,.5.5h0A.5.5,0,0,1,137.66,208.7Z"/><circle class="cls-64" cx="108.5" cy="208.2" r="0.5"/><circle class="cls-64" cx="112.02" cy="207.88" r="0.52"/><path class="cls-64" d="M115.7,207.88a.52.52,0,0,1-.52.52.52.52,0,1,1,0-1A.52.52,0,0,1,115.7,207.88Z"/><path class="cls-64" d="M118.86,207.88a.52.52,0,0,1-.52.52.52.52,0,1,1,0-1A.52.52,0,0,1,118.86,207.88Z"/><circle class="cls-64" cx="108.5" cy="210.2" r="0.5"/><circle class="cls-64" cx="112.02" cy="210.3" r="0.52"/><path class="cls-64" d="M115.7,210.3a.52.52,0,0,1-.52.52.52.52,0,0,1-.52-.52.53.53,0,0,1,.52-.52A.52.52,0,0,1,115.7,210.3Z"/><path class="cls-64" d="M118.86,210.3a.52.52,0,0,1-.52.52.52.52,0,0,1-.52-.52.53.53,0,0,1,.52-.52A.52.52,0,0,1,118.86,210.3Z"/><circle class="cls-64" cx="108.5" cy="213.2" r="0.5"/><circle class="cls-64" cx="112.02" cy="212.73" r="0.52"/><path class="cls-64" d="M115.7,212.73a.52.52,0,0,1-.52.52.53.53,0,0,1-.52-.52.52.52,0,0,1,.52-.52A.52.52,0,0,1,115.7,212.73Z"/><path class="cls-64" d="M118.86,212.73a.52.52,0,0,1-.52.52.53.53,0,0,1-.52-.52.52.52,0,0,1,.52-.52A.52.52,0,0,1,118.86,212.73Z"/><path class="cls-65" d="M106,214.7v-.32a1.13,1.13,0,0,0,1,1.32h32.13a3.73,3.73,0,0,0,1.83-1.32v.32Z"/><line class="cls-10" x1="123.5" y1="187.2" x2="123.5" y2="189.2"/><line class="cls-10" x1="123.5" y1="202.2" x2="123.5" y2="204.2"/><rect class="cls-22" x="149" y="159.7" width="55" height="41"/><rect class="cls-66" x="148" y="158.7" width="55" height="41"/><rect class="cls-20" x="148" y="159.7" width="55" height="6"/><path class="cls-67" d="M154.31,188.7a23.63,23.63,0,0,0,2.95-6.4c1.29-4.16,2.59-6.06,6.14-4.76s5.37.69,8.14-3.38,5-7.27,8.22-6.75,4.25,8,7.54,8.92,3.11-1.65,5.8.34,2,10.82,4,12Z"/><line class="cls-68" x1="154.5" y1="192.2" x2="176.5" y2="192.2"/><line class="cls-68" x1="154.5" y1="195.2" x2="169.5" y2="195.2"/><line class="cls-68" x1="154.5" y1="197.2" x2="169.5" y2="197.2"/><path class="cls-69" d="M189.89,162.33a.76.76,0,0,1-.77.77.77.77,0,0,1-.78-.77.78.78,0,0,1,.78-.78A.77.77,0,0,1,189.89,162.33Z"/><circle class="cls-69" cx="194.15" cy="162.33" r="0.77"/><circle class="cls-69" cx="199" cy="162.7" r="1"/><line class="cls-70" x1="152" y1="189.2" x2="200" y2="189.2"/><path class="cls-71" d="M122.24,58.7H90.76A4.77,4.77,0,0,0,86,63.47V83.94a4.76,4.76,0,0,0,4.76,4.76H96.3c-.22,3.71-4.91,5.44-8.19,6.76,1.44,1.66,4.59,2.07,5.82,2.07a9.36,9.36,0,0,0,9.33-8.83h19A4.76,4.76,0,0,0,127,83.94V63.47A4.77,4.77,0,0,0,122.24,58.7Z"/><path class="cls-47" d="M120.24,57.7H88.76A4.77,4.77,0,0,0,84,62.47V82.94a4.76,4.76,0,0,0,4.76,4.76H94.3a9.37,9.37,0,0,1-5.85,8.15,9.33,9.33,0,0,0,12.81-8.15h19A4.76,4.76,0,0,0,125,82.94V62.47A4.77,4.77,0,0,0,120.24,57.7Z"/><path class="cls-72" d="M105.78,61.45a11.32,11.32,0,0,1-9.22,6.2c0,14.64,9.22,15.41,9.22,15.41S115,82.29,115,67.65A11.3,11.3,0,0,1,105.78,61.45Z"/><path class="cls-73" d="M104.54,60.59a11.29,11.29,0,0,1-9.22,6.2c0,14.64,9.22,15.42,9.22,15.42s9.22-.78,9.22-15.42A11.28,11.28,0,0,1,104.54,60.59Z"/><path class="cls-74" d="M105,60.59V82.21s-9.22-.78-9.22-15.42A11.28,11.28,0,0,0,105,60.59Z"/><line class="cls-75" y1="221.7" x2="293" y2="221.7"/><path class="cls-76" d="M84.67,144.1s3.76,23.63,4.8,34.8,2.21,32.85,2.21,32.85,2.34,3.9,9.87.65c0,0-2,4.81-5.85,6.37s-7.27,4.15-8,2.85-.26-4.93-.78-8.57-7.66-27.27-5.19-32.72l-5.84-19.89s-1.82,19.63-2.73,26.9-3.38,25.32-1.69,28.31,9.22,5,9.35,6.32-15.06,1.39-15.19,0a61.87,61.87,0,0,1,.65-7s-4-31.17.06-38.18c0,0-1.44-16.49-2-20.65-.49-3.59-2.21-9,1.3-12.42Z"/><path class="cls-77" d="M84.67,144.1l-19.09-.35a6.73,6.73,0,0,0-1.79,3C67,149,76,154.13,85.73,151,85.11,146.88,84.67,144.1,84.67,144.1Z"/><path class="cls-51" d="M109.64,128.78s3.68-3,3.87-2.81-1.28,1.73-1,1.93a6.91,6.91,0,0,0,3.69-.76c1.09-.65.93,1.07.47,2.16s-3.32,3-6.93,1.63l-1.56-.08-.14-2Z"/><path class="cls-78" d="M73.47,106.7h4.28s-.86,1.57.31,2.35,4.72,1.3,5.8,2.21,10.9,14.68,10.9,14.68L109,128.55v2.81s-16.58,3.25-23.45-7.31l-1.63,10.67L86.2,146s-12.28,6.56-23.38-2.14l5.33-10.52A150.55,150.55,0,0,0,66.91,118c-.91-5.17-1.23-7.33.85-7.69S73.47,106.7,73.47,106.7Z"/><path class="cls-79" d="M93.43,128.9c1.55-2.33-10.2-15.06-10.2-15.06a33,33,0,0,1,0,8c-.21,1.18.89,2.75,2.44,4.16l.3-1.93a24.83,24.83,0,0,0,5.57,5C92.51,129.29,93.06,129.45,93.43,128.9Z"/><polygon class="cls-80" points="83.98 137.71 69.34 137.71 72.76 117.7 87.39 117.7 83.98 137.71"/><path class="cls-47" d="M73.89,106.7a3.61,3.61,0,0,1-3.55,3.48c-2,.13-6.23,0-6.36-1.74s2.12-1.55,2.2-5.4-.13-10,6.15-11,9.3,1.08,9.61,4.85c.39,4.72,2,5.91,1.69,7.32-.74,3.33-5.48.88-5.94,2.49Z"/><path class="cls-51" d="M78.35,94.77a7.29,7.29,0,0,1,1.56,2.6,1.93,1.93,0,0,0,1.68,1.16,2.41,2.41,0,0,1-1.24,1.26s.68,3.12.19,4-2.46.58-2.66,1.16a7.51,7.51,0,0,0-.19,1.72h-3.8a25.57,25.57,0,0,0-.16-4.38A17.13,17.13,0,0,0,78.35,94.77Z"/><polygon class="cls-47" points="85.6 136.71 70.97 136.71 74.38 116.7 89.02 116.7 85.6 136.71"/><path class="cls-51" d="M71.42,215.65c-.6-1.06-.67-4-.48-7.69a21.09,21.09,0,0,1-5.47,0c.39,4.19.76,7.06.76,7.06a61.87,61.87,0,0,0-.65,7c.13,1.39,15.32,1.34,15.19,0S73.11,218.64,71.42,215.65Z"/><path class="cls-51" d="M101.55,212.4c-7.53,3.25-9.87-.65-9.87-.65s-.13-2.4-.34-6a19.06,19.06,0,0,1-5.91,1.16c.74,2.94,1.31,5.21,1.44,6.15.52,3.64,0,7.27.78,8.57s4.16-1.3,8-2.85S101.55,212.4,101.55,212.4Z"/><path class="cls-49" d="M90.42,215.47l-3.3.7c.08,2.43,0,4.53.53,5.45.78,1.3,4.16-1.3,8-2.85s5.85-6.37,5.85-6.37c-7.53,3.25-9.87-.65-9.87-.65C89.13,212.79,90.42,215.47,90.42,215.47Z"/><path class="cls-49" d="M80.77,222c-.13-1.33-7.66-3.33-9.35-6.32l0-.1a3.73,3.73,0,0,0-2.36,3l-3-1.11,0,0a32.93,32.93,0,0,0-.34,4.61C65.71,223.36,80.9,223.31,80.77,222Z"/><path class="cls-51" d="M79.06,128.51l1.58-.45S84,125.77,84.82,126s-1.69,1.28-1.58,1.59,3.42.11,4.09-.33-.24,1.75-.91,2.42a6.73,6.73,0,0,1-5.87,1l-2.18.54Z"/><path class="cls-78" d="M69.54,110.55c2.63.93,3,5.07,1.54,7.88s-6.41,11.38-6.41,11.38L79.56,128l.43,3.19s-16.88,8.23-20.52,4,2.82-15,3.77-17.66S65.64,109.18,69.54,110.55Z"/><line class="cls-81" x1="67.3" y1="125.14" x2="71.06" y2="118.67"/><path class="cls-82" d="M86,209.2l5.41-2.15c-.18-3.24-.45-7.8-.76-12.56l-14-39.29-.77,5.24,5.84,19.89C79.67,184.77,84,201.26,86,209.2Z"/></g></g></g></svg>