<svg xmlns="http://www.w3.org/2000/svg" viewBox="0 0 295.73 298.37"><defs><style>.cls-1{fill:#ebebeb;}.cls-2{fill:#f5f5f5;}.cls-3{fill:#e0e0e0;}.cls-4{fill:#e8505b;}.cls-5{opacity:0.8;}.cls-6{fill:#fff;}.cls-7{fill:#263238;}.cls-8{opacity:0.6;}.cls-9{opacity:0.4;}.cls-10{fill:#455a64;}.cls-11{opacity:0.5;}.cls-12{fill:#ffbe9d;}.cls-13{fill:#eb996e;}.cls-14{fill:#fafafa;}</style></defs><title>heroMesa de trabajo 1</title><g id="Background_Complete" data-name="Background Complete"><path class="cls-1" d="M16.76,430.78c20.4-7.5,30-28.65,34.48-48.75.74-3.36,2-6.77,1.16-10.1s-4.08-6.29-7.46-5.66c-2.8.52-4.63,3.11-6.64,5.13a20.28,20.28,0,0,1-9.83,5.42c-2.43.55-5.25.54-7.08-1.16-2.5-2.33-1.82-6.38-.95-9.68l4.88-18.47c.87-3.3,1.75-6.67,1.52-10.08s-1.79-6.92-4.75-8.62-7.38-.89-8.88,2.17a31.51,31.51,0,0,0-1.16,4.1c-.44,1.34-1.48,2.7-2.9,2.74s-2.54-1.24-3.29-2.46c-2.61-4.23-3.85-9.14-4.94-14s-2.09-9.77-4.3-14.22-5.8-8.45-10.53-10-10.6.11-13,4.45-.88,9.79,1.15,14.34A76.64,76.64,0,0,0-14,334.65a6.3,6.3,0,0,1,1.9,3.44c.16,2.39-2.53,4-4.92,4.2-2.71.17-5.35-.78-8-1.14s-5.81,0-7.43,2.22c-2.24,3-.29,7.31,1.93,10.36A66.58,66.58,0,0,0-14.34,369.4c2.24,1.53,4.63,3,6.18,5.19s2,5.51.19,7.53-5.08,2-7.54.84-4.42-3.11-6.65-4.66c-4.16-2.9-10.19-4.11-14.15-.94-2.61,2.08-3.7,5.63-3.51,9a24.71,24.71,0,0,0,3,9.48A66.57,66.57,0,0,0-14.24,422c9.75,6.4,19.4,9.93,31,8.82"/><path class="cls-1" d="M-19.71,235.21H63.18s-7.33-13.34-28.66-11.4c-20.38,1.85-21.42-6.56-31.78-7.6S-16.26,223.12-19.71,235.21Z"/><path class="cls-1" d="M264,88.59h79.38s-7-12.77-27.45-10.91c-19.52,1.77-20.51-6.29-30.43-7.28S267.29,77,264,88.59Z"/><path class="cls-2" d="M-28.84,62.21H23.09s-4.59-8.36-18-7.14C-7.64,56.23-8.28,51-14.78,50.31S-26.68,54.64-28.84,62.21Z"/><path class="cls-3" d="M-40.25,263.88H11.69s-4.6-8.36-18-7.14C-19,257.9-19.69,252.63-26.18,252S-38.08,256.31-40.25,263.88Z"/></g><g id="Earth"><path class="cls-4" d="M205.58,97.85l.4-.31,1.2-.86c.53-.38,1.21-.81,1.95-1.41l2.57-2c.92-.83,2-1.72,3.05-2.75S217,88.3,218.14,87a64.63,64.63,0,0,0,7.13-9.51,65.51,65.51,0,0,0,9.66-29.11,48.53,48.53,0,0,0-1.83-18.05A32.87,32.87,0,0,0,222.81,14a26,26,0,0,0-8.67-4.62,32.23,32.23,0,0,0-9.51-1.29,64.52,64.52,0,0,0-17.95,3.1,128.28,128.28,0,0,0-28.4,12.26A133.05,133.05,0,0,0,141.12,35.4c-1.89,1.6-3.35,2.83-4.31,3.72l-1.11,1-.39.33s.11-.13.35-.36l1.08-1c.93-.91,2.38-2.17,4.25-3.79a128,128,0,0,1,45.56-24.51A64.58,64.58,0,0,1,204.63,7.6a33,33,0,0,1,9.66,1.3,26.5,26.5,0,0,1,8.85,4.72,33.35,33.35,0,0,1,10.45,16.52,48.93,48.93,0,0,1,1.82,18.24,65.36,65.36,0,0,1-9.83,29.26,63,63,0,0,1-7.23,9.51c-1.14,1.34-2.37,2.43-3.43,3.51s-2.16,1.91-3.09,2.73l-2.61,2c-.74.59-1.44,1-2,1.37l-1.23.82C205.73,97.77,205.58,97.85,205.58,97.85Z"/><path class="cls-4" d="M74.69,176.53a52.92,52.92,0,0,1-7.9,1.8,61.38,61.38,0,0,1-22-.54,59,59,0,0,1-7.06-2,57,57,0,0,1-7.27-3.25A50.66,50.66,0,0,1,16.8,161.63a46.1,46.1,0,0,1-9.57-16.76,37.19,37.19,0,0,1-1.19-5,41.73,41.73,0,0,1-.65-5.14c-.09-.87,0-1.75-.06-2.62a21.16,21.16,0,0,1,.07-2.64c.06-.88.13-1.76.19-2.65s.27-1.76.41-2.64a50.3,50.3,0,0,1,2.85-10.18c.59-1.64,1.37-3.18,2.09-4.74.37-.77.81-1.5,1.21-2.25s.8-1.5,1.27-2.19A61.17,61.17,0,0,1,26,90.17a73.2,73.2,0,0,1,14.67-9.58A91.58,91.58,0,0,1,54.87,75a120.6,120.6,0,0,1,21.67-4.18c2.6-.25,4.62-.41,6-.46l1.56-.08h.53l-.53.06-1.55.13c-1.37.09-3.38.29-6,.56A124.3,124.3,0,0,0,55,75.4,91.68,91.68,0,0,0,40.84,81,73.28,73.28,0,0,0,26.3,90.53a61.06,61.06,0,0,0-12.45,14.6c-.46.69-.85,1.44-1.25,2.18s-.84,1.47-1.2,2.23c-.71,1.55-1.49,3.08-2.06,4.7a50,50,0,0,0-2.83,10.08c-.13.87-.26,1.74-.4,2.61s-.13,1.75-.19,2.62a20.69,20.69,0,0,0-.07,2.61c0,.86,0,1.73.06,2.59a42.72,42.72,0,0,0,.63,5.08,37.88,37.88,0,0,0,1.18,4.89,45.63,45.63,0,0,0,9.44,16.6,50.59,50.59,0,0,0,13.51,10.86,57.4,57.4,0,0,0,7.19,3.24,58.46,58.46,0,0,0,7,2,62,62,0,0,0,21.89.7c2.58-.39,4.56-.81,5.89-1.13l1.52-.36Z"/><path class="cls-4" d="M231.33,132.74c-1-2.22-1.21-4.68-1.86-7a4.62,4.62,0,0,0-2.11-3.14,17.1,17.1,0,0,0-2.52-.57c-3-.89-3.77-5-6.58-6.31a9.4,9.4,0,0,0-2.82-.59c-3.76-.45-7.65-1.75-10-4.7a18.81,18.81,0,0,0-2.31-2.85,2.78,2.78,0,0,0-3.4-.32l2.35,4.74a12.31,12.31,0,0,0,2.63,4,4.23,4.23,0,0,0,4.43,1,2.94,2.94,0,0,1,1.49-.52,1.6,1.6,0,0,1,1,.62c2,2.27,1.38,6-.61,8.34s-4.94,3.51-7.78,4.63a6,6,0,0,1-3.17.62c-2-.36-3-2.5-3.58-4.42-1.29-4.25-1.9-8.87-4.54-12.45a15.72,15.72,0,0,1-2.39-3.48c-.54-1.42-.41-3.09-1.27-4.34s-2.78-2.08-2.9-3.66a2.89,2.89,0,0,1,1.85-2.57c1-.5,2.16-.64,3.21-1.07.41-.17.87-.47.88-.92,0-.66-.92-.93-1.15-1.55s.46-1.35.76-2c.65-1.55-1-3.12-2.54-3.76s-3.44-1.09-4.17-2.62a9,9,0,0,1-.51-2.26,5,5,0,0,0-3.71-4.1c-2-.31-4.11,1.42-3.79,3.35.19,1.06,1,1.89,1.41,2.87s.32,2.44-.7,2.76c-1.66.51-3.26-2.54-4.66-1.49.57,2,1.13,3.9,1.7,5.87-2.19,1.11-4.81-.91-5.74-3.19s-1-4.87-2.08-7.06-4.11-3.83-6-2.28c-.1,2.82,3.63,4,5.28,6.25,1.19,1.65,1,4.33-.74,5.37s-4.52-.77-3.86-2.69c.24-.67.79-1.22.86-1.94.06-.88-.68-1.6-1.37-2.17l-3.18-2.68a7,7,0,0,0-2.27-1.43c-2.19-.63-4.38,1.15-5.54,3.1s-1.8,4.26-3.41,5.9c-2.3,2.37-6.66,2.52-8.81,0s-1.07-7.16,2.12-8.06c1.21-.33,2.73-.3,3.36-1.36,1.11-1.89-2.06-4.3-1-6.2.84-1.46,3.06-.8,4.67-1.29s2.51-2.11,3.46-3.5,2.41-2.78,4.06-2.41a5.14,5.14,0,0,1,.18-2.89,1.76,1.76,0,0,1,2.42-.89c-.81,1.33.16,3.19,1.57,3.86a8.68,8.68,0,0,0,4.62.33c1.55-.19,3.5-.76,3.63-2.32a5.51,5.51,0,0,1,0-1.52c.68-1.86,4.1.7,5.42-.79.76-.78-.08-2.16-1.14-2.41a11.3,11.3,0,0,0-3.22.16c-1.08,0-2.4-.53-2.44-1.61s1.14-1.82,1.27-2.87c.2-1.77-2.81-2.23-3.87-.79s-.69,3.43-.37,5.19.49,3.83-.81,5.07c-.55.84-2,.4-2.47-.49a7.21,7.21,0,0,1-.46-3,2.55,2.55,0,0,0-1.51-2.42,5.31,5.31,0,0,0-2.11.24c-2.76.33-4.68-3.24-3.8-5.87s3.36-4.35,5.79-5.7c1.77-1,4-1.9,5.74-.9.82.46,1.39,1.25,2.2,1.73,1.4.82,3.13.52,4.73.55a11.06,11.06,0,0,1,6.9,2.68c.71.65,1.38,1.73.82,2.51s-2.33,1-2,2a3.44,3.44,0,0,0,4.31-2.78,2.89,2.89,0,0,1,1.67,2.35,5.12,5.12,0,0,1,7.53.62,6.65,6.65,0,0,0,1.4,1.79c.63.41,1.74.2,1.82-.54a1.53,1.53,0,0,0-.13-.7c-.38-1.08-.77-2.14-1.15-3.2,1.47-.8,3.22.44,4.22,1.77,3.71,5,6.36,2,11.59,2.8,3.53.53,5.09,2.8,7.09,5.55C219.34,75,227.43,82,233,90.78c.59.91,1.13,1.85,1.64,2.8-.1-.24-.18-.47-.27-.71a97.71,97.71,0,0,0-8.09-16.45c-.68-1.11-1.38-2.2-2.09-3.28-.45-.67-.91-1.35-1.37-2-.58-.85-1.2-1.68-1.82-2.5s-1-1.32-1.49-2c-.35-.45-.72-.89-1.08-1.34s-.79-1-1.24-1.49l-1.33-1.54c-.13-.15-.27-.31-.43-.47-.46-.54-.95-1.06-1.44-1.59a.52.52,0,0,0-.14-.16q-.19-.21-.42-.42c-.39-.45-.82-.88-1.23-1.3-.69-.7-1.38-1.4-2.1-2.07s-1.19-1.14-1.8-1.69-1.08-1-1.64-1.46-1.08-.94-1.63-1.4-1.35-1.12-2.05-1.68h0c-1.92-1.54-3.9-3-5.93-4.36l-1.51-1c-.51-.34-1-.66-1.54-1s-1-.65-1.55-.95-1.05-.63-1.57-.94-.84-.49-1.27-.71a7,7,0,0,0-.65-.36c-.91-.51-1.83-1-2.75-1.46-.46-.24-.92-.48-1.39-.7s-1.19-.59-1.79-.86a1.31,1.31,0,0,0-.27-.12c-.54-.26-1.08-.51-1.64-.75-.77-.33-1.55-.67-2.33-1s-1.77-.73-2.68-1.07-2-.74-3-1.07-2.05-.69-3.08-1-2.06-.61-3.11-.89q-3.09-.84-6.26-1.48a.45.45,0,0,1-.11,0c-.81-.16-1.62-.32-2.43-.44l-.16,0q-.52-.11-1.08-.18-2.25-.37-4.56-.63l-.56-.07c-.44-.06-.89-.09-1.35-.14q-1.51-.13-3.06-.24c-1.06-.08-2.14-.12-3.22-.15s-2.25-.07-3.37-.07q-4.48,0-8.85.4c-.7.05-1.38.11-2.07.19l-2.14.25c-.71.1-1.42.19-2.12.3l-2.13.35c-.6.1-1.22.21-1.82.34-1.49.28-3,.6-4.42.95-.69.16-1.37.33-2.05.52s-1.36.36-2,.56c-1.13.31-2.22.66-3.32,1h0l-2.67.9-.06,0c-.9.31-1.77.65-2.66,1l-.15,0c-.8.32-1.61.65-2.41,1-1,.41-2,.85-2.95,1.3s-1.63.76-2.42,1.15-1.72.86-2.56,1.3l-.09,0c-.81.43-1.62.87-2.41,1.33s-1.63.94-2.44,1.45h0c-.76.46-1.51.92-2.25,1.39-.29.18-.56.37-.84.56-.8.51-1.56,1-2.33,1.57-1,.65-1.88,1.33-2.79,2s-1.61,1.22-2.38,1.84A99.62,99.62,0,0,0,65.87,62c-1.35,1.49-2.62,3-3.85,4.56C61,67.91,60,69.25,59,70.65q-1.31,1.81-2.53,3.71,1.23-1.89,2.53-3.71l.76-.08A11.68,11.68,0,0,0,64,69.89a25.61,25.61,0,0,0,3.11-2.41c2.76-2,7.28-2.33,8-5.63.25-1.11,0-2.32.37-3.38.77-2,3.42-2.27,5.55-2.24.9,0,2,.13,2.38.92A2.28,2.28,0,0,1,83.3,59,17.24,17.24,0,0,1,76,67.94c-2.76,1.68-6.36,3-7.12,6.12.38,1.06,2.32,1,2.47,2.09.12.89-1,1.35-1.44,2.14-.6,1.16.78,2.57,2.09,2.51a5.79,5.79,0,0,0,3.38-1.9c2.89-2.68,5.92-5.57,7-9.38.45-1.57.61-3.41,1.88-4.45A3.1,3.1,0,0,1,89,66.57c1.25-.69,3.2-1.22,3.85.08a6.75,6.75,0,0,1,.27,1.49c.41,2,3.19,3,3.47,5,.34,2.36-2.69,3.58-5.06,4-2.14.33-4.28.66-6.42,1A6.06,6.06,0,0,0,82.4,79a2.08,2.08,0,0,0-.8,2.49,6.64,6.64,0,0,0,1.11,1.14c1.78,1.78.32,5.44-2.18,5.52-.86,0-1.7-.28-2.56-.32-2.54-.11-4.55,2.13-5.76,4.36s-2.1,4.79-4.13,6.32c-3.27,2.45-8.9,1.88-10.49,5.66-.63,1.52-.3,3.23,0,4.87s.36,3.42-.59,4.77-3.38,1.62-4.08.13a3.69,3.69,0,0,1-.09-2.11c.38-2.35.74-4.7,1.11-7,.27-1.75.51-3.7-.53-5.13-1.44-2-4.67-1.8-6.55-.2s-2.63,4.11-3.15,6.5a28.32,28.32,0,0,1-1.81,6.31h0c-.33,2-.6,4-.81,6s-.35,4.11-.43,6.2a6.93,6.93,0,0,0,.81-.76c1-1,3-5.39,4.82-3.25a1.62,1.62,0,0,1,0,2c-.56.72-1.67.87-2.1,1.65s.21,2.06,1.06,2.67a8.85,8.85,0,0,1,2.51,1.87c1.16,1.66.05,4.18,1.17,5.88,1,1.46,3,1.55,4.79,1.75l.61.09c.49-3.49,2.12-6.33,6.88-7.41,6.56-1.49,15.19,4,18.89,8.9,4.12,5.54,6.07,13.37,12.38,16.15,4.52,2,11,1.26,13.15,5.69,2,4-1.46,8.42-2,12.81-.34,2.91.62,5.79.84,8.69s-.65,6.32-3.3,7.54c-1.48.66-3.33.58-4.52,1.69-2.11,2-.38,6.13-2.49,8.12a10.91,10.91,0,0,1-2.68,1.42c-4.74,2.39-4.62,9.37-2.41,14.21l.24.5a100.06,100.06,0,0,0,51.4,14.2,99.74,99.74,0,0,0,47-11.71h0a100.71,100.71,0,0,0,8.87-5.34,99.25,99.25,0,0,0,12.45-9.9,96.71,96.71,0,0,0,7.61-7.94c1.68-1.94,3.27-3.95,4.79-6,.78-1.07,1.54-2.13,2.25-3.22a96.19,96.19,0,0,0,6-10A99.91,99.91,0,0,0,240,142.05c.3-2.25.54-4.54.7-6.84a5.75,5.75,0,0,1-4,1.79C234.28,137,232.3,135,231.33,132.74Z"/><g class="cls-5"><path class="cls-6" d="M231.33,132.74c-1-2.22-1.21-4.68-1.86-7a4.62,4.62,0,0,0-2.11-3.14,17.1,17.1,0,0,0-2.52-.57c-3-.89-3.77-5-6.58-6.31a9.4,9.4,0,0,0-2.82-.59c-3.76-.45-7.65-1.75-10-4.7a18.81,18.81,0,0,0-2.31-2.85,2.78,2.78,0,0,0-3.4-.32l2.35,4.74a12.31,12.31,0,0,0,2.63,4,4.23,4.23,0,0,0,4.43,1,2.94,2.94,0,0,1,1.49-.52,1.6,1.6,0,0,1,1,.62c2,2.27,1.38,6-.61,8.34s-4.94,3.51-7.78,4.63a6,6,0,0,1-3.17.62c-2-.36-3-2.5-3.58-4.42-1.29-4.25-1.9-8.87-4.54-12.45a15.72,15.72,0,0,1-2.39-3.48c-.54-1.42-.41-3.09-1.27-4.34s-2.78-2.08-2.9-3.66a2.89,2.89,0,0,1,1.85-2.57c1-.5,2.16-.64,3.21-1.07.41-.17.87-.47.88-.92,0-.66-.92-.93-1.15-1.55s.46-1.35.76-2c.65-1.55-1-3.12-2.54-3.76s-3.44-1.09-4.17-2.62a9,9,0,0,1-.51-2.26,5,5,0,0,0-3.71-4.1c-2-.31-4.11,1.42-3.79,3.35.19,1.06,1,1.89,1.41,2.87s.32,2.44-.7,2.76c-1.66.51-3.26-2.54-4.66-1.49.57,2,1.13,3.9,1.7,5.87-2.19,1.11-4.81-.91-5.74-3.19s-1-4.87-2.08-7.06-4.11-3.83-6-2.28c-.1,2.82,3.63,4,5.28,6.25,1.19,1.65,1,4.33-.74,5.37s-4.52-.77-3.86-2.69c.24-.67.79-1.22.86-1.94.06-.88-.68-1.6-1.37-2.17l-3.18-2.68a7,7,0,0,0-2.27-1.43c-2.19-.63-4.38,1.15-5.54,3.1s-1.8,4.26-3.41,5.9c-2.3,2.37-6.66,2.52-8.81,0s-1.07-7.16,2.12-8.06c1.21-.33,2.73-.3,3.36-1.36,1.11-1.89-2.06-4.3-1-6.2.84-1.46,3.06-.8,4.67-1.29s2.51-2.11,3.46-3.5,2.41-2.78,4.06-2.41a5.14,5.14,0,0,1,.18-2.89,1.76,1.76,0,0,1,2.42-.89c-.81,1.33.16,3.19,1.57,3.86a8.68,8.68,0,0,0,4.62.33c1.55-.19,3.5-.76,3.63-2.32a5.51,5.51,0,0,1,0-1.52c.68-1.86,4.1.7,5.42-.79.76-.78-.08-2.16-1.14-2.41a11.3,11.3,0,0,0-3.22.16c-1.08,0-2.4-.53-2.44-1.61s1.14-1.82,1.27-2.87c.2-1.77-2.81-2.23-3.87-.79s-.69,3.43-.37,5.19.49,3.83-.81,5.07c-.55.84-2,.4-2.47-.49a7.21,7.21,0,0,1-.46-3,2.55,2.55,0,0,0-1.51-2.42,5.31,5.31,0,0,0-2.11.24c-2.76.33-4.68-3.24-3.8-5.87s3.36-4.35,5.79-5.7c1.77-1,4-1.9,5.74-.9.82.46,1.39,1.25,2.2,1.73,1.4.82,3.13.52,4.73.55a11.06,11.06,0,0,1,6.9,2.68c.71.65,1.38,1.73.82,2.51s-2.33,1-2,2a3.44,3.44,0,0,0,4.31-2.78,2.89,2.89,0,0,1,1.67,2.35,5.12,5.12,0,0,1,7.53.62,6.65,6.65,0,0,0,1.4,1.79c.63.41,1.74.2,1.82-.54a1.53,1.53,0,0,0-.13-.7c-.38-1.08-.77-2.14-1.15-3.2,1.47-.8,3.22.44,4.22,1.77,3.71,5,6.36,2,11.59,2.8,3.53.53,5.09,2.8,7.09,5.55C219.34,75,227.43,82,233,90.78c.59.91,1.13,1.85,1.64,2.8-.1-.24-.18-.47-.27-.71a97.71,97.71,0,0,0-8.09-16.45c-.68-1.11-1.38-2.2-2.09-3.28-.45-.67-.91-1.35-1.37-2-.58-.85-1.2-1.68-1.82-2.5s-1-1.32-1.49-2c-.35-.45-.72-.89-1.08-1.34s-.79-1-1.24-1.49l-1.33-1.54c-.13-.15-.27-.31-.43-.47-.46-.54-.95-1.06-1.44-1.59a.52.52,0,0,0-.14-.16q-.19-.21-.42-.42c-.39-.45-.82-.88-1.23-1.3-.69-.7-1.38-1.4-2.1-2.07s-1.19-1.14-1.8-1.69-1.08-1-1.64-1.46-1.08-.94-1.63-1.4-1.35-1.12-2.05-1.68h0c-1.92-1.54-3.9-3-5.93-4.36l-1.51-1c-.51-.34-1-.66-1.54-1s-1-.65-1.55-.95-1.05-.63-1.57-.94-.84-.49-1.27-.71a7,7,0,0,0-.65-.36c-.91-.51-1.83-1-2.75-1.46-.46-.24-.92-.48-1.39-.7s-1.19-.59-1.79-.86a1.31,1.31,0,0,0-.27-.12c-.54-.26-1.08-.51-1.64-.75-.77-.33-1.55-.67-2.33-1s-1.77-.73-2.68-1.07-2-.74-3-1.07-2.05-.69-3.08-1-2.06-.61-3.11-.89q-3.09-.84-6.26-1.48a.45.45,0,0,1-.11,0c-.81-.16-1.62-.32-2.43-.44l-.16,0q-.52-.11-1.08-.18-2.25-.37-4.56-.63l-.56-.07c-.44-.06-.89-.09-1.35-.14q-1.51-.13-3.06-.24c-1.06-.08-2.14-.12-3.22-.15s-2.25-.07-3.37-.07q-4.48,0-8.85.4c-.7.05-1.38.11-2.07.19l-2.14.25c-.71.1-1.42.19-2.12.3l-2.13.35c-.6.1-1.22.21-1.82.34-1.49.28-3,.6-4.42.95-.69.16-1.37.33-2.05.52s-1.36.36-2,.56c-1.13.31-2.22.66-3.32,1h0l-2.67.9-.06,0c-.9.31-1.77.65-2.66,1l-.15,0c-.8.32-1.61.65-2.41,1-1,.41-2,.85-2.95,1.3s-1.63.76-2.42,1.15-1.72.86-2.56,1.3l-.09,0c-.81.43-1.62.87-2.41,1.33s-1.63.94-2.44,1.45h0c-.76.46-1.51.92-2.25,1.39-.29.18-.56.37-.84.56-.8.51-1.56,1-2.33,1.57-1,.65-1.88,1.33-2.79,2s-1.61,1.22-2.38,1.84A99.62,99.62,0,0,0,65.87,62c-1.35,1.49-2.62,3-3.85,4.56C61,67.91,60,69.25,59,70.65q-1.31,1.81-2.53,3.71,1.23-1.89,2.53-3.71l.76-.08A11.68,11.68,0,0,0,64,69.89a25.61,25.61,0,0,0,3.11-2.41c2.76-2,7.28-2.33,8-5.63.25-1.11,0-2.32.37-3.38.77-2,3.42-2.27,5.55-2.24.9,0,2,.13,2.38.92A2.28,2.28,0,0,1,83.3,59,17.24,17.24,0,0,1,76,67.94c-2.76,1.68-6.36,3-7.12,6.12.38,1.06,2.32,1,2.47,2.09.12.89-1,1.35-1.44,2.14-.6,1.16.78,2.57,2.09,2.51a5.79,5.79,0,0,0,3.38-1.9c2.89-2.68,5.92-5.57,7-9.38.45-1.57.61-3.41,1.88-4.45A3.1,3.1,0,0,1,89,66.57c1.25-.69,3.2-1.22,3.85.08a6.75,6.75,0,0,1,.27,1.49c.41,2,3.19,3,3.47,5,.34,2.36-2.69,3.58-5.06,4-2.14.33-4.28.66-6.42,1A6.06,6.06,0,0,0,82.4,79a2.08,2.08,0,0,0-.8,2.49,6.64,6.64,0,0,0,1.11,1.14c1.78,1.78.32,5.44-2.18,5.52-.86,0-1.7-.28-2.56-.32-2.54-.11-4.55,2.13-5.76,4.36s-2.1,4.79-4.13,6.32c-3.27,2.45-8.9,1.88-10.49,5.66-.63,1.52-.3,3.23,0,4.87s.36,3.42-.59,4.77-3.38,1.62-4.08.13a3.69,3.69,0,0,1-.09-2.11c.38-2.35.74-4.7,1.11-7,.27-1.75.51-3.7-.53-5.13-1.44-2-4.67-1.8-6.55-.2s-2.63,4.11-3.15,6.5a28.32,28.32,0,0,1-1.81,6.31h0c-.33,2-.6,4-.81,6s-.35,4.11-.43,6.2a6.93,6.93,0,0,0,.81-.76c1-1,3-5.39,4.82-3.25a1.62,1.62,0,0,1,0,2c-.56.72-1.67.87-2.1,1.65s.21,2.06,1.06,2.67a8.85,8.85,0,0,1,2.51,1.87c1.16,1.66.05,4.18,1.17,5.88,1,1.46,3,1.55,4.79,1.75l.61.09c.49-3.49,2.12-6.33,6.88-7.41,6.56-1.49,15.19,4,18.89,8.9,4.12,5.54,6.07,13.37,12.38,16.15,4.52,2,11,1.26,13.15,5.69,2,4-1.46,8.42-2,12.81-.34,2.91.62,5.79.84,8.69s-.65,6.32-3.3,7.54c-1.48.66-3.33.58-4.52,1.69-2.11,2-.38,6.13-2.49,8.12a10.91,10.91,0,0,1-2.68,1.42c-4.74,2.39-4.62,9.37-2.41,14.21l.24.5a100.06,100.06,0,0,0,51.4,14.2,99.74,99.74,0,0,0,47-11.71h0a100.71,100.71,0,0,0,8.87-5.34,99.25,99.25,0,0,0,12.45-9.9,96.71,96.71,0,0,0,7.61-7.94c1.68-1.94,3.27-3.95,4.79-6,.78-1.07,1.54-2.13,2.25-3.22a96.19,96.19,0,0,0,6-10A99.91,99.91,0,0,0,240,142.05c.3-2.25.54-4.54.7-6.84a5.75,5.75,0,0,1-4,1.79C234.28,137,232.3,135,231.33,132.74Z"/></g><path class="cls-7" d="M116.8,54.63c-2,1.18-3,3.42-4.58,5.16s-4.28,3-6.08,1.52a4.18,4.18,0,0,1-1.36-3,7.5,7.5,0,0,1,1.08-4.59c.86-1.4,2.18-2.51,2.91-4s.58-3.65-.92-4.34c-.81-.38-1.83-.23-2.55-.76-1.29-1-.36-3.2,1.14-3.77s3.16-.13,4.76,0c5.81.37,10.09-3.44,14.45-6.6,3.4-2.45,10.63-5.36,14.56-2.85,1.57,1,2.18,3.58.71,4.71-.66.51-1.58.62-2.19,1.18s-.84,1.78-1.27,2.68c-1.1,2.36-4.27,3.21-5.29,5.6-.61,1.43-.34,3.22-1.28,4.46a5.49,5.49,0,0,1-3.26,1.62l-7.58,1.8A11.22,11.22,0,0,0,116.8,54.63Z"/><path class="cls-7" d="M184.52,178c-2.52,3.79-3,8.52-3.67,13s-1.9,9.26-5.35,12.22-9.79,2.78-11.68-1.35c-1-2.24-.51-4.88-1.07-7.28-.73-3.13-3.22-5.55-4.4-8.54-1-2.55-1-5.36-1.1-8.1-.45-15-4.1-30.61-14.29-41.59a10,10,0,0,0-4.46-3.13,5.69,5.69,0,0,0-5.85,2c-.82,1.08-1.24,2.46-2.24,3.38-2.18,2-6,.56-7.44-2s-1.25-5.72-1-8.66l.9-10.93c.16-1.91.38-4,1.63-5.41,1.78-2.05,5-2.15,7.15-3.78,2.85-2.14,3.23-6.22,5-9.3s7.44-4.38,8.27-.91c6-12.76,19.13,6.19,27,4.77,2.27-.42,4.49-1.51,6.78-1.19,4,.57,6.13,5,7.51,8.86q3.42,9.59,6.85,19.15c.87,2.43,2,5.13,4.4,6.06,1.84.71,4,.17,5.85.85,4.91,1.78,3.31,9.52-.64,12.94s-9.51,5.58-11.39,10.46c-1.42,3.68-.29,8-1.81,11.62C188.37,173.75,186.07,175.63,184.52,178Z"/><path class="cls-7" d="M203.17,182.14c-1.61.22-3.52-.57-4.75.5a5.27,5.27,0,0,0-1.15,2.56,5.52,5.52,0,0,1-2.29,3.13,3.45,3.45,0,0,1-3.74-.07,2.53,2.53,0,0,1-.51-3.5c.39-.45,1-.72,1.39-1.14,2.15-2,.68-5.78,2.31-8.19,1-1.42,2.47-2.86,3.53-4.3.81-1.11,1.11-2,2.6-2.28C207.09,167.57,210.05,181.17,203.17,182.14Z"/><path class="cls-4" d="M53.61,154.94c-.32-2.87.64-5.74.68-8.64,0-2-.11-4.11-.14-6.12a27.38,27.38,0,0,1-5.09-.72,1.52,1.52,0,0,1-.93-.47,1.77,1.77,0,0,1-.21-1.07c-.13-2.25-2.3-3.74-4.25-4.86a17.41,17.41,0,0,0-3.09-1.53c0,.24,0,.46,0,.7A100,100,0,0,0,47,164a96.15,96.15,0,0,0,6.12,13.13c1,1.82,2.06,3.62,3.19,5.38,1.39,2.17,2.85,4.29,4.42,6.34s3,3.88,4.65,5.72a97.66,97.66,0,0,0,7.09,7.3q3.3,3.09,6.9,5.87c-5.48-14.69-10.63-29.68-20-42.17C56.9,162.33,54.07,159,53.61,154.94Z"/><path class="cls-7" d="M40.56,126.79c0,.61,0,1.21,0,1.81s0,1,0,1.47c0-.49,0-1,0-1.47S40.55,127.4,40.56,126.79Z"/><g class="cls-8"><path class="cls-7" d="M84.94,211.83c.85.57,1.7,1.12,2.56,1.66.61.38,1.21.75,1.83,1.11-.62-.36-1.22-.73-1.83-1.11C86.64,213,85.79,212.4,84.94,211.83Z"/></g><path class="cls-4" d="M202.66,149.07c4-3.42,5.55-11.16.64-12.94-1.86-.68-4-.14-5.85-.85-2.41-.93-3.53-3.63-4.4-6.06q-3.42-9.59-6.85-19.15c-1.38-3.84-3.47-8.29-7.51-8.86-2.29-.32-4.51.77-6.78,1.19-7.84,1.42-21-17.53-27-4.77-.83-3.47-6.47-2.17-8.27.91s-2.18,7.16-5,9.3c-2.18,1.63-5.37,1.73-7.15,3.78-1.25,1.45-1.47,3.5-1.63,5.41L122,128c-.24,2.94-.45,6.09,1,8.66s5.26,4,7.44,2c1-.92,1.42-2.3,2.24-3.38a5.69,5.69,0,0,1,5.85-2,10,10,0,0,1,4.46,3.13c10.19,11,13.84,26.61,14.29,41.59.08,2.74.09,5.55,1.1,8.1,1.18,3,3.67,5.41,4.4,8.54.56,2.4,0,5,1.07,7.28,1.89,4.13,8.23,4.31,11.68,1.35s4.65-7.73,5.35-12.22,1.15-9.22,3.67-13c1.55-2.35,3.85-4.23,4.94-6.83,1.52-3.63.39-7.94,1.81-11.62C193.15,154.65,198.7,152.49,202.66,149.07Z"/><g class="cls-8"><path class="cls-7" d="M40.62,124.43v0h0v0c0,.19,0,.36,0,.55,0,.6,0,1.21,0,1.81,0-.6,0-1.21,0-1.81C40.59,124.79,40.61,124.62,40.62,124.43Z"/></g><g class="cls-8"><path class="cls-7" d="M40.55,130.07c0,.49,0,1,0,1.46h0C40.56,131.05,40.56,130.56,40.55,130.07Z"/></g><path class="cls-4" d="M54.33,136.29l-.61-.09c-1.76-.2-3.82-.29-4.79-1.75-1.12-1.7,0-4.22-1.17-5.88a8.85,8.85,0,0,0-2.51-1.87c-.85-.61-1.58-1.75-1.06-2.67s1.54-.93,2.1-1.65a1.62,1.62,0,0,0,0-2c-1.8-2.14-3.82,2.22-4.82,3.25a6.93,6.93,0,0,1-.81.76v0c0,.19,0,.36,0,.55,0,.6,0,1.21,0,1.81s0,1.21,0,1.81,0,1,0,1.47,0,1,0,1.46a17.41,17.41,0,0,1,3.09,1.53c1.95,1.12,4.12,2.61,4.25,4.86a1.77,1.77,0,0,0,.21,1.07,1.52,1.52,0,0,0,.93.47,27.38,27.38,0,0,0,5.09.72"/><path class="cls-4" d="M54.15,140.18c0,2,.18,4.12.14,6.12,0,2.9-1,5.77-.68,8.64.46,4.06,3.29,7.39,5.74,10.66,9.36,12.49,14.51,27.48,20,42.17h0c1,.81,2.05,1.57,3.09,2.31.83.6,1.66,1.18,2.5,1.75s1.7,1.12,2.56,1.66c.61.38,1.21.75,1.83,1.11l-.24-.5c-2.21-4.84-2.33-11.82,2.41-14.21a10.91,10.91,0,0,0,2.68-1.42c2.11-2,.38-6.12,2.49-8.12,1.19-1.11,3-1,4.52-1.69,2.65-1.22,3.5-4.62,3.3-7.54s-1.18-5.78-.84-8.69c.52-4.39,3.95-8.85,2-12.81-2.2-4.43-8.63-3.71-13.15-5.69-6.31-2.78-8.26-10.61-12.38-16.15-3.7-4.95-12.33-10.39-18.89-8.9-4.76,1.08-6.39,3.92-6.88,7.41"/><path class="cls-4" d="M46.82,99.42c1.88-1.6,5.11-1.79,6.55.2,1,1.43.8,3.38.53,5.13-.37,2.34-.73,4.69-1.11,7a3.69,3.69,0,0,0,.09,2.11c.7,1.49,3.14,1.2,4.08-.13s.84-3.16.59-4.77-.59-3.35,0-4.87c1.59-3.78,7.22-3.21,10.49-5.66,2-1.53,2.93-4.08,4.13-6.32s3.22-4.47,5.76-4.36c.86,0,1.7.35,2.56.32,2.5-.08,4-3.74,2.18-5.52a6.64,6.64,0,0,1-1.11-1.14A2.08,2.08,0,0,1,82.4,79a6.06,6.06,0,0,1,2.66-.86c2.14-.35,4.28-.68,6.42-1,2.37-.37,5.4-1.59,5.06-4-.28-2-3.06-3-3.47-5a6.75,6.75,0,0,0-.27-1.49c-.65-1.3-2.6-.77-3.85-.08a3.1,3.1,0,0,0-4.71-1.5c-1.27,1-1.43,2.88-1.88,4.45-1,3.81-4.07,6.7-7,9.38A5.79,5.79,0,0,1,72,80.8c-1.31.06-2.69-1.35-2.09-2.51.41-.79,1.56-1.25,1.44-2.14-.15-1.11-2.09-1-2.47-2.09.76-3.14,4.36-4.44,7.12-6.12A17.24,17.24,0,0,0,83.3,59a2.28,2.28,0,0,0,.1-1.84c-.42-.79-1.48-.92-2.38-.92-2.13,0-4.78.26-5.55,2.24-.42,1.06-.12,2.27-.37,3.38-.74,3.3-5.26,3.66-8,5.63A25.61,25.61,0,0,1,64,69.89a11.68,11.68,0,0,1-4.22.68l-.76.08q-1.31,1.81-2.53,3.71c-.81,1.25-1.59,2.53-2.34,3.82a99.45,99.45,0,0,0-8.69,19.38c-.78,2.37-1.46,4.78-2.06,7.23s-1.1,4.93-1.51,7.44a28.32,28.32,0,0,0,1.81-6.31C44.19,103.53,45,101,46.82,99.42Z"/><path class="cls-4" d="M130.89,50.07c.94-1.24.67-3,1.28-4.46,1-2.39,4.19-3.24,5.29-5.6.43-.9.53-2,1.27-2.68s1.53-.67,2.19-1.18c1.47-1.13.86-3.7-.71-4.71-3.93-2.51-11.16.4-14.56,2.85-4.36,3.16-8.64,7-14.45,6.6-1.6-.11-3.26-.55-4.76,0s-2.43,2.82-1.14,3.77c.72.53,1.74.38,2.55.76,1.5.69,1.65,2.86.92,4.34s-2,2.59-2.91,4a7.5,7.5,0,0,0-1.08,4.59,4.18,4.18,0,0,0,1.36,3c1.8,1.45,4.55.21,6.08-1.52s2.59-4,4.58-5.16a11.22,11.22,0,0,1,3.25-1.14l7.58-1.8A5.49,5.49,0,0,0,130.89,50.07Z"/><g class="cls-8"><path class="cls-7" d="M234.63,93.6c.47,1.27.92,2.54,1.34,3.83-.42-1.29-.87-2.56-1.34-3.83,0,0,0,0,0,0h0Z"/></g><path class="cls-4" d="M240.89,127.22c0-1.44,0-2.88-.13-4.3s-.19-2.84-.33-4.25q-.17-1.71-.39-3.39c-.16-1.19-.34-2.38-.53-3.55a97.53,97.53,0,0,0-2.35-10.41c-.37-1.31-.76-2.6-1.19-3.89s-.87-2.56-1.34-3.83v0h0c-.51-1-1-1.89-1.64-2.8C227.43,82,219.34,75,213.22,66.61c-2-2.75-3.56-5-7.09-5.55-5.23-.81-7.88,2.17-11.59-2.8-1-1.33-2.75-2.57-4.22-1.77.38,1.06.77,2.12,1.15,3.2a1.53,1.53,0,0,1,.13.7c-.08.74-1.19,1-1.82.54a6.65,6.65,0,0,1-1.4-1.79,5.12,5.12,0,0,0-7.53-.62,2.89,2.89,0,0,0-1.67-2.35A3.44,3.44,0,0,1,174.87,59c-.3-1,1.43-1.15,2-2s-.11-1.86-.82-2.51a11.06,11.06,0,0,0-6.9-2.68c-1.6,0-3.33.27-4.73-.55-.81-.48-1.38-1.27-2.2-1.73-1.76-1-4-.08-5.74.9-2.43,1.35-4.94,3.05-5.79,5.7s1,6.2,3.8,5.87a5.31,5.31,0,0,1,2.11-.24,2.55,2.55,0,0,1,1.51,2.42,7.21,7.21,0,0,0,.46,3c.47.89,1.92,1.33,2.47.49,1.3-1.24,1.14-3.31.81-5.07s-.68-3.75.37-5.19,4.07-1,3.87.79C166,59.2,164.8,60,164.85,61s1.36,1.65,2.44,1.61a11.3,11.3,0,0,1,3.22-.16c1.06.25,1.9,1.63,1.14,2.41-1.32,1.49-4.74-1.07-5.42.79a5.51,5.51,0,0,0,0,1.52c-.13,1.56-2.08,2.13-3.63,2.32a8.68,8.68,0,0,1-4.62-.33c-1.41-.67-2.38-2.53-1.57-3.86a1.76,1.76,0,0,0-2.42.89,5.14,5.14,0,0,0-.18,2.89c-1.65-.37-3.12,1-4.06,2.41s-1.85,3-3.46,3.5-3.83-.17-4.67,1.29c-1.1,1.9,2.07,4.31,1,6.2-.63,1.06-2.15,1-3.36,1.36-3.19.9-4.3,5.57-2.12,8.06s6.51,2.34,8.81,0c1.61-1.64,2.26-3.94,3.41-5.9s3.35-3.73,5.54-3.1a7,7,0,0,1,2.27,1.43L160.26,87c.69.57,1.43,1.29,1.37,2.17-.07.72-.62,1.27-.86,1.94-.66,1.92,2.11,3.74,3.86,2.69s1.93-3.72.74-5.37c-1.65-2.29-5.38-3.43-5.28-6.25,1.9-1.55,4.9.08,6,2.28s1.14,4.79,2.08,7.06,3.55,4.3,5.74,3.19c-.57-2-1.13-3.92-1.7-5.87,1.4-1,3,2,4.66,1.49,1-.32,1.15-1.78.7-2.76s-1.22-1.81-1.41-2.87C175.85,82.77,178,81,180,81.35a5,5,0,0,1,3.71,4.1,9,9,0,0,0,.51,2.26c.73,1.53,2.62,2,4.17,2.62s3.19,2.21,2.54,3.76c-.3.68-1,1.33-.76,2s1.15.89,1.15,1.55c0,.45-.47.75-.88.92-1.05.43-2.19.57-3.21,1.07a2.89,2.89,0,0,0-1.85,2.57c.12,1.58,2,2.34,2.9,3.66s.73,2.92,1.27,4.34a15.72,15.72,0,0,0,2.39,3.48c2.64,3.58,3.25,8.2,4.54,12.45.57,1.92,1.62,4.06,3.58,4.42a6,6,0,0,0,3.17-.62c2.84-1.12,5.79-2.33,7.78-4.63s2.66-6.07.61-8.34a1.6,1.6,0,0,0-1-.62,2.94,2.94,0,0,0-1.49.52,4.23,4.23,0,0,1-4.43-1,12.31,12.31,0,0,1-2.63-4l-2.35-4.74a2.78,2.78,0,0,1,3.4.32,18.81,18.81,0,0,1,2.31,2.85c2.36,3,6.25,4.25,10,4.7a9.4,9.4,0,0,1,2.82.59c2.81,1.28,3.62,5.42,6.58,6.31a17.1,17.1,0,0,1,2.52.57,4.62,4.62,0,0,1,2.11,3.14c.65,2.33.88,4.79,1.86,7s2.95,4.23,5.36,4.26a5.75,5.75,0,0,0,4-1.79h0c.12-2.19.2-4.38.2-6.6C240.92,128.14,240.92,127.68,240.89,127.22Z"/><path class="cls-4" d="M200.56,168.85c-1.49.3-1.79,1.17-2.6,2.28-1.06,1.44-2.57,2.88-3.53,4.3-1.63,2.41-.16,6.17-2.31,8.19-.43.42-1,.69-1.39,1.14a2.53,2.53,0,0,0,.51,3.5,3.45,3.45,0,0,0,3.74.07,5.52,5.52,0,0,0,2.29-3.13,5.27,5.27,0,0,1,1.15-2.56c1.23-1.07,3.14-.28,4.75-.5C210.05,181.17,207.09,167.57,200.56,168.85Z"/><g class="cls-8"><path class="cls-6" d="M202.66,149.07c4-3.42,5.55-11.16.64-12.94-1.86-.68-4-.14-5.85-.85-2.41-.93-3.53-3.63-4.4-6.06q-3.42-9.59-6.85-19.15c-1.38-3.84-3.47-8.29-7.51-8.86-2.29-.32-4.51.77-6.78,1.19-7.84,1.42-21-17.53-27-4.77-.83-3.47-6.47-2.17-8.27.91s-2.18,7.16-5,9.3c-2.18,1.63-5.37,1.73-7.15,3.78-1.25,1.45-1.47,3.5-1.63,5.41L122,128c-.24,2.94-.45,6.09,1,8.66s5.26,4,7.44,2c1-.92,1.42-2.3,2.24-3.38a5.69,5.69,0,0,1,5.85-2,10,10,0,0,1,4.46,3.13c10.19,11,13.84,26.61,14.29,41.59.08,2.74.09,5.55,1.1,8.1,1.18,3,3.67,5.41,4.4,8.54.56,2.4,0,5,1.07,7.28,1.89,4.13,8.23,4.31,11.68,1.35s4.65-7.73,5.35-12.22,1.15-9.22,3.67-13c1.55-2.35,3.85-4.23,4.94-6.83,1.52-3.63.39-7.94,1.81-11.62C193.15,154.65,198.7,152.49,202.66,149.07Z"/></g><g class="cls-8"><path class="cls-6" d="M79.34,207.77h0c1,.81,2.05,1.57,3.09,2.31.83.6,1.66,1.18,2.5,1.75s1.7,1.12,2.56,1.66c.61.38,1.21.75,1.83,1.11-.08-.17-.16-.33-.24-.51-2.21-4.83-2.33-11.81,2.41-14.2a10.91,10.91,0,0,0,2.68-1.42c2.11-2,.38-6.12,2.49-8.12,1.19-1.11,3-1,4.52-1.69,2.65-1.22,3.5-4.62,3.3-7.54s-1.18-5.78-.84-8.69c.52-4.39,3.95-8.85,2-12.81-2.2-4.43-8.63-3.71-13.15-5.69-6.31-2.78-8.26-10.61-12.38-16.15-3.7-4.95-12.33-10.39-18.89-8.9-4.76,1.08-6.39,3.92-6.88,7.41l-.61-.09c-1.76-.2-3.82-.29-4.79-1.75-1.12-1.7,0-4.22-1.17-5.88a8.85,8.85,0,0,0-2.51-1.87c-.85-.61-1.58-1.75-1.06-2.67s1.54-.93,2.1-1.65a1.62,1.62,0,0,0,0-2c-1.8-2.14-3.82,2.22-4.82,3.25a6.93,6.93,0,0,1-.81.76v0c0,.19,0,.36,0,.55,0,.6,0,1.21,0,1.81s0,1.21,0,1.81,0,1,0,1.47,0,1,0,1.46c0,.24,0,.46,0,.7A100,100,0,0,0,47,164a96.15,96.15,0,0,0,6.12,13.13c1,1.82,2.06,3.62,3.19,5.38,1.39,2.17,2.85,4.29,4.42,6.34s3,3.88,4.65,5.72a97.66,97.66,0,0,0,7.09,7.3q3.3,3.09,6.9,5.87"/></g><g class="cls-8"><path class="cls-6" d="M46.82,99.42c1.88-1.6,5.11-1.79,6.55.2,1,1.43.8,3.38.53,5.13-.37,2.34-.73,4.69-1.11,7a3.69,3.69,0,0,0,.09,2.11c.7,1.49,3.14,1.2,4.08-.13s.84-3.16.59-4.77-.59-3.35,0-4.87c1.59-3.78,7.22-3.21,10.49-5.66,2-1.53,2.93-4.08,4.13-6.32s3.22-4.47,5.76-4.36c.86,0,1.7.35,2.56.32,2.5-.08,4-3.74,2.18-5.52a6.64,6.64,0,0,1-1.11-1.14A2.08,2.08,0,0,1,82.4,79a6.06,6.06,0,0,1,2.66-.86c2.14-.35,4.28-.68,6.42-1,2.37-.37,5.4-1.59,5.06-4-.28-2-3.06-3-3.47-5a6.75,6.75,0,0,0-.27-1.49c-.65-1.3-2.6-.77-3.85-.08a3.1,3.1,0,0,0-4.71-1.5c-1.27,1-1.43,2.88-1.88,4.45-1,3.81-4.07,6.7-7,9.38A5.79,5.79,0,0,1,72,80.8c-1.31.06-2.69-1.35-2.09-2.51.41-.79,1.56-1.25,1.44-2.14-.15-1.11-2.09-1-2.47-2.09.76-3.14,4.36-4.44,7.12-6.12A17.24,17.24,0,0,0,83.3,59a2.28,2.28,0,0,0,.1-1.84c-.42-.79-1.48-.92-2.38-.92-2.13,0-4.78.26-5.55,2.24-.42,1.06-.12,2.27-.37,3.38-.74,3.3-5.26,3.66-8,5.63A25.61,25.61,0,0,1,64,69.89a11.68,11.68,0,0,1-4.22.68l-.76.08q-1.31,1.81-2.53,3.71c-.81,1.25-1.59,2.53-2.34,3.82a99.45,99.45,0,0,0-8.69,19.38c-.78,2.37-1.46,4.78-2.06,7.23s-1.1,4.93-1.51,7.44a28.32,28.32,0,0,0,1.81-6.31C44.19,103.53,45,101,46.82,99.42Z"/></g><g class="cls-8"><path class="cls-6" d="M130.89,50.07c.94-1.24.67-3,1.28-4.46,1-2.39,4.19-3.24,5.29-5.6.43-.9.53-2,1.27-2.68s1.53-.67,2.19-1.18c1.47-1.13.86-3.7-.71-4.71-3.93-2.51-11.16.4-14.56,2.85-4.36,3.16-8.64,7-14.45,6.6-1.6-.11-3.26-.55-4.76,0s-2.43,2.82-1.14,3.77c.72.53,1.74.38,2.55.76,1.5.69,1.65,2.86.92,4.34s-2,2.59-2.91,4a7.5,7.5,0,0,0-1.08,4.59,4.18,4.18,0,0,0,1.36,3c1.8,1.45,4.55.21,6.08-1.52s2.59-4,4.58-5.16a11.22,11.22,0,0,1,3.25-1.14l7.58-1.8A5.49,5.49,0,0,0,130.89,50.07Z"/></g><g class="cls-8"><path class="cls-6" d="M240.89,127.22c0-1.44,0-2.88-.13-4.3s-.19-2.84-.33-4.25q-.17-1.71-.39-3.39c-.16-1.19-.34-2.38-.53-3.55a97.53,97.53,0,0,0-2.35-10.41c-.37-1.31-.76-2.6-1.19-3.89s-.87-2.56-1.34-3.83v0h0c-.51-1-1-1.89-1.64-2.8C227.43,82,219.34,75,213.22,66.61c-2-2.75-3.56-5-7.09-5.55-5.23-.81-7.88,2.17-11.59-2.8-1-1.33-2.75-2.57-4.22-1.77.38,1.06.77,2.12,1.15,3.2a1.53,1.53,0,0,1,.13.7c-.08.74-1.19,1-1.82.54a6.65,6.65,0,0,1-1.4-1.79,5.12,5.12,0,0,0-7.53-.62,2.89,2.89,0,0,0-1.67-2.35A3.44,3.44,0,0,1,174.87,59c-.3-1,1.43-1.15,2-2s-.11-1.86-.82-2.51a11.06,11.06,0,0,0-6.9-2.68c-1.6,0-3.33.27-4.73-.55-.81-.48-1.38-1.27-2.2-1.73-1.76-1-4-.08-5.74.9-2.43,1.35-4.94,3.05-5.79,5.7s1,6.2,3.8,5.87a5.31,5.31,0,0,1,2.11-.24,2.55,2.55,0,0,1,1.51,2.42,7.21,7.21,0,0,0,.46,3c.47.89,1.92,1.33,2.47.49,1.3-1.24,1.14-3.31.81-5.07s-.68-3.75.37-5.19,4.07-1,3.87.79C166,59.2,164.8,60,164.85,61s1.36,1.65,2.44,1.61a11.3,11.3,0,0,1,3.22-.16c1.06.25,1.9,1.63,1.14,2.41-1.32,1.49-4.74-1.07-5.42.79a5.51,5.51,0,0,0,0,1.52c-.13,1.56-2.08,2.13-3.63,2.32a8.68,8.68,0,0,1-4.62-.33c-1.41-.67-2.38-2.53-1.57-3.86a1.76,1.76,0,0,0-2.42.89,5.14,5.14,0,0,0-.18,2.89c-1.65-.37-3.12,1-4.06,2.41s-1.85,3-3.46,3.5-3.83-.17-4.67,1.29c-1.1,1.9,2.07,4.31,1,6.2-.63,1.06-2.15,1-3.36,1.36-3.19.9-4.3,5.57-2.12,8.06s6.51,2.34,8.81,0c1.61-1.64,2.26-3.94,3.41-5.9s3.35-3.73,5.54-3.1a7,7,0,0,1,2.27,1.43L160.26,87c.69.57,1.43,1.29,1.37,2.17-.07.72-.62,1.27-.86,1.94-.66,1.92,2.11,3.74,3.86,2.69s1.93-3.72.74-5.37c-1.65-2.29-5.38-3.43-5.28-6.25,1.9-1.55,4.9.08,6,2.28s1.14,4.79,2.08,7.06,3.55,4.3,5.74,3.19c-.57-2-1.13-3.92-1.7-5.87,1.4-1,3,2,4.66,1.49,1-.32,1.15-1.78.7-2.76s-1.22-1.81-1.41-2.87C175.85,82.77,178,81,180,81.35a5,5,0,0,1,3.71,4.1,9,9,0,0,0,.51,2.26c.73,1.53,2.62,2,4.17,2.62s3.19,2.21,2.54,3.76c-.3.68-1,1.33-.76,2s1.15.89,1.15,1.55c0,.45-.47.75-.88.92-1.05.43-2.19.57-3.21,1.07a2.89,2.89,0,0,0-1.85,2.57c.12,1.58,2,2.34,2.9,3.66s.73,2.92,1.27,4.34a15.72,15.72,0,0,0,2.39,3.48c2.64,3.58,3.25,8.2,4.54,12.45.57,1.92,1.62,4.06,3.58,4.42a6,6,0,0,0,3.17-.62c2.84-1.12,5.79-2.33,7.78-4.63s2.66-6.07.61-8.34a1.6,1.6,0,0,0-1-.62,2.94,2.94,0,0,0-1.49.52,4.23,4.23,0,0,1-4.43-1,12.31,12.31,0,0,1-2.63-4l-2.35-4.74a2.78,2.78,0,0,1,3.4.32,18.81,18.81,0,0,1,2.31,2.85c2.36,3,6.25,4.25,10,4.7a9.4,9.4,0,0,1,2.82.59c2.81,1.28,3.62,5.42,6.58,6.31a17.1,17.1,0,0,1,2.52.57,4.62,4.62,0,0,1,2.11,3.14c.65,2.33.88,4.79,1.86,7s2.95,4.23,5.36,4.26a5.75,5.75,0,0,0,4-1.79h0c.12-2.19.2-4.38.2-6.6C240.92,128.14,240.92,127.68,240.89,127.22Z"/></g><g class="cls-8"><path class="cls-6" d="M200.56,168.85c-1.49.3-1.79,1.17-2.6,2.28-1.06,1.44-2.57,2.88-3.53,4.3-1.63,2.41-.16,6.17-2.31,8.19-.43.42-1,.69-1.39,1.14a2.53,2.53,0,0,0,.51,3.5,3.45,3.45,0,0,0,3.74.07,5.52,5.52,0,0,0,2.29-3.13,5.27,5.27,0,0,1,1.15-2.56c1.23-1.07,3.14-.28,4.75-.5C210.05,181.17,207.09,167.57,200.56,168.85Z"/></g><path class="cls-4" d="M73.85,54s.78-.58,2.38-1.53a53.19,53.19,0,0,1,7.28-3.6,60.51,60.51,0,0,1,12.37-3.49,65.55,65.55,0,0,1,8-.91c1.42-.11,2.88-.16,4.38-.18s3,0,4.63,0a89.1,89.1,0,0,1,20.4,3A75.53,75.53,0,0,1,154.88,57,63.82,63.82,0,0,1,173.4,75.31a60.1,60.1,0,0,1,9.69,26.21,52.59,52.59,0,0,1-.21,13.53l-.42-.24a40.26,40.26,0,0,1,11.43-6.4A42.38,42.38,0,0,1,206.35,106a38.51,38.51,0,0,1,22.71,6.28,41.08,41.08,0,0,1,14,16,38.38,38.38,0,0,1,4,18,40.64,40.64,0,0,1-9.35,24.58,37.43,37.43,0,0,1-5.11,5.1l-1.49,1.13-.52.37.49-.41,1.46-1.16a40.2,40.2,0,0,0,5-5.15,40.61,40.61,0,0,0,9.15-24.47,38.11,38.11,0,0,0-4-17.83,40.7,40.7,0,0,0-13.93-15.78,38.05,38.05,0,0,0-22.43-6.17,41.9,41.9,0,0,0-12.3,2.35,39.68,39.68,0,0,0-11.28,6.32l-.52.41.1-.65a52.42,52.42,0,0,0,.2-13.39,59.53,59.53,0,0,0-9.6-26,63.34,63.34,0,0,0-18.35-18.24,75.76,75.76,0,0,0-21.45-9.6,89,89,0,0,0-20.31-3.07c-1.57,0-3.11-.11-4.6,0s-3,0-4.37.16a67.16,67.16,0,0,0-8,.86A61.51,61.51,0,0,0,83.59,49a57.69,57.69,0,0,0-7.31,3.51c-.81.45-1.4.83-1.81,1.08S73.85,54,73.85,54Z"/><path class="cls-4" d="M184.93,112.92a4.5,4.5,0,0,0-1.46-1.71c-1.56-1.41-3.55-1.21-4.36-.18a4.2,4.2,0,0,0-.32,4.19,4.61,4.61,0,0,0,2.81,2.69,3.2,3.2,0,0,0,3.55-1.2A3.66,3.66,0,0,0,184.93,112.92Z"/><path class="cls-4" d="M160,51.75c.37-1.87-2.35-3.85-4.66-4.86,0,0-1.51-.75-2.16-1v0l-2.71-4.47a2.07,2.07,0,0,0-.93-.83l-.44-.2a.28.28,0,0,0-.39.33l1.09,4,0,0-4.28-1.42-.07,0a3.42,3.42,0,0,1-1.86-1.59l-1-1.81a.58.58,0,0,0-.21-.23.51.51,0,0,0-.76.43l-.09,3a1.25,1.25,0,0,0,.68,1.14l1.08.55,5.5,2.71-2.87,1.46a.21.21,0,0,0-.06.32l.17.2a1,1,0,0,0,.94.35l4.74-.89,6.5,3.21C159,52.67,159.8,52.45,160,51.75Z"/><path class="cls-4" d="M76.89,44.63A3.88,3.88,0,0,0,73.68,43a4.2,4.2,0,0,0-3.88,2.69,4.31,4.31,0,0,0,.14,3,5.29,5.29,0,0,0,.56,1c.77,1.12,3.18,4.18,3.18,4.18h.53c.67-.94,2.36-4,2.87-5A4.16,4.16,0,0,0,76.89,44.63Zm-2.71,5A2.56,2.56,0,1,1,76.75,47,2.56,2.56,0,0,1,74.18,49.59Z"/><g class="cls-9"><path d="M76.89,44.63A3.88,3.88,0,0,0,73.68,43a4.2,4.2,0,0,0-3.88,2.69,4.31,4.31,0,0,0,.14,3,5.29,5.29,0,0,0,.56,1c.77,1.12,3.18,4.18,3.18,4.18h.53c.67-.94,2.36-4,2.87-5A4.16,4.16,0,0,0,76.89,44.63Zm-2.71,5A2.56,2.56,0,1,1,76.75,47,2.56,2.56,0,0,1,74.18,49.59Z"/></g><path class="cls-4" d="M77.42,44.65A3.88,3.88,0,0,0,74.21,43a4.21,4.21,0,0,0-3.89,2.69,4.36,4.36,0,0,0,.15,3A5.12,5.12,0,0,0,71,49.78C71.8,50.89,74.21,54,74.21,54s2.79-3.83,3.4-5A4.18,4.18,0,0,0,77.42,44.65Zm-3.23,5a2.57,2.57,0,1,1,2.56-2.57A2.55,2.55,0,0,1,74.19,49.62Z"/><path class="cls-4" d="M74.18,44.47a2.55,2.55,0,0,0-2.41,1.71A2.2,2.2,0,1,1,72,48.43a2.56,2.56,0,1,0,2.14-4Z"/><g class="cls-9"><path d="M74.18,44.47a2.55,2.55,0,0,0-2.41,1.71A2.2,2.2,0,1,1,72,48.43a2.56,2.56,0,1,0,2.14-4Z"/></g></g><g id="Character"><path class="cls-7" d="M176.39,241.89c.93,1.85,15.81,98.63,15.81,98.63l11.14,65.14-25.15,6.49L163.58,347l-11.34-63-5-34.69Z"/><path class="cls-7" d="M165.89,257.9l-.95,72.74a43.45,43.45,0,0,1-10.87,29.43l-44.84,49.37L88.86,389.25l44.3-54.83-4.84-70.59Z"/><path class="cls-10" d="M164.59,264.15a1.3,1.3,0,0,1,0,.31l0,.91c0,.84.06,2,.11,3.5.08,3,.15,7.45.2,12.88.1,10.88-.06,25.91.22,42.5.05,4.14.26,8.19.09,12.12a41.61,41.61,0,0,1-.61,5.76,20.2,20.2,0,0,1-.75,2.74c-.41.83-.73,1.71-1.2,2.48a69.48,69.48,0,0,1-5.74,8.47c-2,2.53-3.88,4.82-5.64,6.9-3.54,4.13-6.5,7.39-8.52,9.66L140.51,375l-.6.68c-.14.16-.21.23-.22.22a1.16,1.16,0,0,1,.18-.25l.56-.72c.5-.62,1.26-1.53,2.25-2.68,2-2.32,4.89-5.61,8.39-9.77,1.74-2.09,3.63-4.38,5.58-6.92a70.38,70.38,0,0,0,5.65-8.44c1.92-3.07,2.28-6.89,2.48-10.77s-.05-7.94-.1-12.1c-.29-16.59-.06-31.62-.07-42.49,0-5.41,0-9.81,0-12.88,0-1.5,0-2.67,0-3.51,0-.37,0-.67,0-.91A1.92,1.92,0,0,1,164.59,264.15Z"/><path class="cls-4" d="M170.28,180.69l15.11,28.43,35-6.05,4.39,18.31L184,232a11,11,0,0,1-5.79.21h0a11,11,0,0,1-7.89-7.22L155.4,186.3c-1.35-3.52-4.18-10.76-1.4-13.31l-2.77-2.9C155.84,165.87,167.35,174,170.28,180.69Z"/><path class="cls-7" d="M182.74,221.12a4.38,4.38,0,0,1-.74-1.8,10.58,10.58,0,0,1,0-4.72,10.43,10.43,0,0,1,2-4.27A4.61,4.61,0,0,1,185.4,209a15.61,15.61,0,0,1-1.13,1.56,12.27,12.27,0,0,0-1.79,4.16,11.88,11.88,0,0,0-.11,4.53C182.56,220.4,182.82,221.09,182.74,221.12Z"/><path class="cls-4" d="M180.16,252.67c2.67-1.69,6.4-.58,8.59,1.71s3.15,5.44,3.92,8.51a107.83,107.83,0,0,1,2.7,15.55,13.26,13.26,0,0,1-.29,5.51,7.55,7.55,0,0,1-5.65,4.83,8.61,8.61,0,0,1-7.23-2c-3.45-3.05-4.1-8.11-4.52-12.69l-1.9-20.59"/><g class="cls-9"><path d="M180.16,252.67c2.67-1.69,6.4-.58,8.59,1.71s3.15,5.44,3.92,8.51a107.83,107.83,0,0,1,2.7,15.55,13.26,13.26,0,0,1-.29,5.51,7.55,7.55,0,0,1-5.65,4.83,8.61,8.61,0,0,1-7.23-2c-3.45-3.05-4.1-8.11-4.52-12.69l-1.9-20.59"/></g><path class="cls-7" d="M190.73,288.58a1.55,1.55,0,0,1-1.46-.46,3.32,3.32,0,0,1-.92-1.58c-.2-.69-.32-1.47-.51-2.33-.68-3.45-1.59-8.22-2.57-13.49s-1.83-10.06-2.43-13.53c-.27-1.66-.5-3-.68-4.11a8.36,8.36,0,0,1-.17-1.52,10.74,10.74,0,0,1,.37,1.49c.22,1,.5,2.42.84,4.08.69,3.44,1.6,8.21,2.58,13.49s1.83,10.06,2.43,13.52c.15.86.26,1.66.42,2.32a3.08,3.08,0,0,0,.78,1.51A2.18,2.18,0,0,0,190.73,288.58Z"/><path class="cls-7" d="M190.28,286.87c.07.13-.24.41-.72.48s-.85-.12-.83-.25.37-.21.76-.27S190.22,286.74,190.28,286.87Z"/><path class="cls-7" d="M193.17,264.7a12.73,12.73,0,0,1-4.06,1.4,13.23,13.23,0,0,1-4.25.52,26.75,26.75,0,0,1,4.14-1A28.12,28.12,0,0,1,193.17,264.7Z"/><path class="cls-7" d="M195.31,274.73a12.63,12.63,0,0,1-4.13,1.33,12.44,12.44,0,0,1-4.33.27,32.78,32.78,0,0,1,4.23-.78A32.9,32.9,0,0,1,195.31,274.73Z"/><polygon class="cls-7" points="183.23 251.85 164.25 172.41 163.09 171.72 167.91 200.14 179.71 253.29 183.23 251.85"/><path class="cls-4" d="M127.56,174.29a36.84,36.84,0,0,0-20.91,1.48c-3,1.13-5.92,2.76-7.59,5.45-2,3.19-1.81,7.2-1.73,10.95A129.14,129.14,0,0,1,95.78,215c-1,6.27-2.44,12.51-2.63,18.86s1,13,4.84,18.06c5.88,7.83,16.74,10.32,26.49,9.35A31.29,31.29,0,0,0,139,256.49c4.26-2.9,7.55-7.49,8.08-12.62"/><g class="cls-11"><path d="M127.56,174.29a36.84,36.84,0,0,0-20.91,1.48c-3,1.13-5.92,2.76-7.59,5.45-2,3.19-1.81,7.2-1.73,10.95A129.14,129.14,0,0,1,95.78,215c-1,6.27-2.44,12.51-2.63,18.86s1,13,4.84,18.06c5.88,7.83,16.74,10.32,26.49,9.35A31.29,31.29,0,0,0,139,256.49c4.26-2.9,7.55-7.49,8.08-12.62"/></g><path class="cls-3" d="M115.1,183.55a16.94,16.94,0,0,0-2.42,3.44,29.44,29.44,0,0,0-1.7,4.26,45.12,45.12,0,0,1-2,5.32,12.07,12.07,0,0,1-3.55,4.49,6.94,6.94,0,0,1-4.45,1.42,5.48,5.48,0,0,1-3-1,3.52,3.52,0,0,1-.64-.57c-.12-.15-.18-.24-.17-.25s.31.28.92.66a5.57,5.57,0,0,0,2.9.77,6.63,6.63,0,0,0,4.15-1.43,11.83,11.83,0,0,0,3.37-4.34,49.82,49.82,0,0,0,2-5.25,26,26,0,0,1,1.84-4.27,11.84,11.84,0,0,1,1.85-2.54A3,3,0,0,1,115.1,183.55Z"/><path class="cls-3" d="M109.78,260.29a3,3,0,0,1-.1-.63c-.05-.47-.11-1.06-.18-1.8-.15-1.56-.33-3.83-.53-6.63-.41-5.6-.87-13.35-1.19-21.91s-.46-16.33-.47-21.95c0-2.81,0-5.08,0-6.65,0-.74,0-1.34,0-1.81a3.15,3.15,0,0,1,.05-.63,2.64,2.64,0,0,1,.06.63c0,.47,0,1.07.05,1.81,0,1.64.08,3.89.14,6.65.11,5.61.29,13.37.62,21.93s.72,16.3,1,21.91c.15,2.75.27,5,.36,6.64l.09,1.8A2.9,2.9,0,0,1,109.78,260.29Z"/><path class="cls-3" d="M107.8,226a32.24,32.24,0,0,1-6.87.43,32.37,32.37,0,0,1-6.86-.53c0-.15,3.08,0,6.86,0S107.79,225.82,107.8,226Z"/><path class="cls-3" d="M105.31,226.18a3.87,3.87,0,0,1,.59,1.41,12.34,12.34,0,0,1,.35,1.63,2.31,2.31,0,0,1,0,1.07,1.19,1.19,0,0,1-1,.81.86.86,0,0,1-.7-.22,1.08,1.08,0,0,1-.3-.59,3.56,3.56,0,0,1,0-1,11,11,0,0,1,.37-1.63,3.47,3.47,0,0,1,.66-1.38,6.63,6.63,0,0,1-.3,1.48,13.7,13.7,0,0,0-.25,1.59,3.24,3.24,0,0,0,0,.88c.06.27.22.42.44.4.54-.08.68-.74.59-1.32s-.16-1.14-.24-1.59A5.94,5.94,0,0,1,105.31,226.18Z"/><rect class="cls-10" x="94.14" y="154.89" width="48.13" height="21.54" rx="9.59"/><path class="cls-7" d="M102.47,155.33s.09-.08.29-.16a3.46,3.46,0,0,1,.93-.26,5.43,5.43,0,0,1,3.43.76,10,10,0,0,1,3.79,3.6,13.17,13.17,0,0,1,1.64,6.18,10.9,10.9,0,0,1-1.47,6.21,8.87,8.87,0,0,1-3.85,3.52,8,8,0,0,1-3.43.79,5.36,5.36,0,0,1-1-.08c-.21,0-.32-.07-.32-.09s.46,0,1.27,0a8.56,8.56,0,0,0,3.28-.92,8.74,8.74,0,0,0,3.6-3.43,10.67,10.67,0,0,0,1.36-5.95,13,13,0,0,0-1.54-6,9.92,9.92,0,0,0-3.55-3.52,5.53,5.53,0,0,0-3.23-.88C102.9,155.17,102.48,155.38,102.47,155.33Z"/><path class="cls-7" d="M121.06,154.81l-5,.09a5.77,5.77,0,0,1,3.47,2.08,9.7,9.7,0,0,1,1.82,3.68A15.64,15.64,0,0,1,116,176.43l4.06.07s10.27-11.58,1-21.69"/><path class="cls-4" d="M124.18,264.07c-.76-6.74-1-32.93-1-32.93-1-12.21-1.41-25.53-2.14-34.39-.68-8.35-4-17.6,0-20.06,14.12-8.81,18.82-8.47,18.82-8.47l7.56.1c9,.68,15.7,6.78,17,15.12l17,77.77Z"/><path class="cls-7" d="M178.19,244.27a3.26,3.26,0,0,1-.18-.55c-.12-.43-.27-1-.45-1.62-.37-1.4-.89-3.43-1.51-5.95-1.24-5-2.88-12-4.6-19.74s-3.17-14.75-4.19-19.84c-.48-2.49-.88-4.54-1.17-6-.12-.67-.21-1.21-.29-1.65a3.37,3.37,0,0,1-.07-.58,2.18,2.18,0,0,1,.17.56c.1.43.23,1,.39,1.63l1.33,6c1.13,5.13,2.65,12.1,4.34,19.8s3.3,14.65,4.45,19.77c.56,2.48,1,4.51,1.35,6,.14.66.26,1.2.35,1.63A2.27,2.27,0,0,1,178.19,244.27Z"/><path class="cls-7" d="M131.4,139.9a3.18,3.18,0,0,1-2.1,2.9,25.91,25.91,0,0,1-3.69.94,4.18,4.18,0,0,0-3,2.21,2.58,2.58,0,0,0,3.23,3.37,3.09,3.09,0,1,0,3.77,4.85c-1.52,2-.6,5.17,1.56,6.41a6.32,6.32,0,0,0,6.95-.91,10.31,10.31,0,0,0,3.28-6.52,31,31,0,0,0-.15-7.45"/><path class="cls-7" d="M156,162a3.5,3.5,0,0,0,6.13-2.33,4,4,0,0,0,5-6.1,2.18,2.18,0,0,0,2.92-1.17,3.83,3.83,0,0,0-.46-3.4c-.62-1-5.47-3.21-5.47-6.54,0-7.32-1-6.67-1.42-12.38"/><path class="cls-12" d="M132.56,136.61l2.37,33.5a10.44,10.44,0,0,0,10.42,9.71h0a10.45,10.45,0,0,0,10.42-11.13c-.21-3.19-.4-5.8-.4-5.8s8.11-1.26,8.21-9.37c.06-4.69-.75-15.31-1.44-23.46a10.64,10.64,0,0,0-10.6-9.73h-4.9A15,15,0,0,0,132.56,136.61Z"/><path class="cls-13" d="M155.38,162.77a18.84,18.84,0,0,1-10.57-3s2.5,5.83,10.59,5.1Z"/><path class="cls-7" d="M160.31,140.48a1.14,1.14,0,0,1-1.11,1.17,1.11,1.11,0,0,1-1.2-1,1.16,1.16,0,0,1,1.12-1.17A1.1,1.1,0,0,1,160.31,140.48Z"/><path class="cls-7" d="M160.74,138.2c-.14.15-1-.5-2.27-.5s-2.16.63-2.29.48.08-.34.48-.63a3.18,3.18,0,0,1,1.83-.57,3.06,3.06,0,0,1,1.81.58C160.68,137.86,160.81,138.13,160.74,138.2Z"/><path class="cls-7" d="M148.61,140.48a1.15,1.15,0,0,1-1.11,1.17,1.1,1.1,0,0,1-1.2-1,1.16,1.16,0,0,1,1.12-1.17A1.1,1.1,0,0,1,148.61,140.48Z"/><path class="cls-7" d="M148.49,138.43c-.14.15-1-.5-2.27-.5s-2.16.63-2.29.48.08-.34.48-.63a3.18,3.18,0,0,1,1.83-.57,3.13,3.13,0,0,1,1.81.58C148.43,138.09,148.56,138.36,148.49,138.43Z"/><path class="cls-7" d="M153,147.67a8.57,8.57,0,0,1,2-.36c.32,0,.62-.1.67-.32a1.6,1.6,0,0,0-.21-.94l-.94-2.42a41.68,41.68,0,0,1-2.12-6.34,40.67,40.67,0,0,1,2.62,6.15c.32.85.62,1.66.9,2.44a1.86,1.86,0,0,1,.17,1.25.79.79,0,0,1-.52.46,2,2,0,0,1-.54.08A8,8,0,0,1,153,147.67Z"/><path class="cls-7" d="M149.35,148.53c.2,0,.2,1.34,1.36,2.3s2.6.82,2.61,1-.32.27-.93.28a3.36,3.36,0,0,1-2.18-.76,2.92,2.92,0,0,1-1.06-1.92C149.1,148.86,149.25,148.52,149.35,148.53Z"/><path class="cls-7" d="M148.81,133.54c-.12.34-1.36.18-2.83.36s-2.64.57-2.83.27c-.09-.14.11-.46.59-.79a4.74,4.74,0,0,1,2.1-.74,4.93,4.93,0,0,1,2.22.26C148.6,133.12,148.87,133.38,148.81,133.54Z"/><path class="cls-7" d="M160.28,134.59c-.22.28-1.08,0-2.11,0s-1.9.19-2.11-.11c-.08-.14.05-.43.44-.7a3,3,0,0,1,1.71-.46,2.86,2.86,0,0,1,1.68.57C160.26,134.16,160.38,134.45,160.28,134.59Z"/><path class="cls-12" d="M135.3,142.69c-.14-.06-5.58-1.65-5.4,3.9s5.71,4.22,5.71,4.06S135.3,142.69,135.3,142.69Z"/><path class="cls-13" d="M133.85,148.61s-.09.07-.25.15a1,1,0,0,1-.73,0,2.38,2.38,0,0,1-1.17-2.1,3.18,3.18,0,0,1,.23-1.4,1.1,1.1,0,0,1,.7-.76.49.49,0,0,1,.58.25,1,1,0,0,1,.07.27s.12-.1.07-.33a.73.73,0,0,0-.23-.34.74.74,0,0,0-.54-.12,1.34,1.34,0,0,0-1,.89,3.3,3.3,0,0,0-.29,1.56,2.54,2.54,0,0,0,1.49,2.35,1,1,0,0,0,.88-.18C133.85,148.74,133.87,148.61,133.85,148.61Z"/><path class="cls-7" d="M132.21,142.5a2.92,2.92,0,0,1,2.67,1.37c.36.79.44,1.69.8,2.48a2,2,0,0,0,2,1.31,1.69,1.69,0,0,0,1.15-1.26,4.69,4.69,0,0,0,0-1.79c-.33-2.59-.87-5.16-1-7.77a13.33,13.33,0,0,1,1.64-7.53,7.28,7.28,0,0,1,6.49-3.65c1.72.14,3.3,1,5,1.28a6.81,6.81,0,0,0,5.63-1.88,11.33,11.33,0,0,1,1.05-.76,3.23,3.23,0,0,0-.58-1.71c-3.4-3.14-9.52-4-14-2.89a16.18,16.18,0,0,0-10.62,8.5c-1.93,4.2-1.36,10.05-.3,14.3"/><path class="cls-4" d="M162.23,128.81S141,122,131.75,140.37a34.54,34.54,0,0,1-1.37-7.07c0-1.65,1-11.47,11.09-14.56C141.47,118.74,156.69,112.93,162.23,128.81Z"/><path class="cls-7" d="M144,129.27a4.69,4.69,0,0,0,3.51,2.18,4.75,4.75,0,0,0,3.86-1.51,2.72,2.72,0,0,0,5.15-.27,6.11,6.11,0,0,0,2.07,1.51,2.11,2.11,0,0,0,2.37-.49,2.07,2.07,0,0,0-.15-2.44,5,5,0,0,0-2.16-1.45,15.5,15.5,0,0,0-8-1.22,10.8,10.8,0,0,0-7,3.83"/><g class="cls-9"><path d="M162.23,128.81a9.88,9.88,0,0,0-6.77-3.07c-6.27-.28-18,3.25-23.71,14.63a34.54,34.54,0,0,1-1.37-7.07c0-1.65,1-11.47,11.09-14.56C141.47,118.74,156.69,112.93,162.23,128.81Z"/></g><path class="cls-4" d="M132.64,138.22A39.89,39.89,0,0,1,145,126.35c4.89-3.06,13-6.08,18.55-7.56a12.3,12.3,0,0,1,5.13-.54,4.64,4.64,0,0,1,3.8,3.11c.53,2.1-3.2,5.35-5,6.62a56.62,56.62,0,0,1-5.32,3.15s.05-3.9-6.19-4.7C147.56,125.33,132.64,138.22,132.64,138.22Z"/><path class="cls-12" d="M191.08,233.18s17.73-.46,21.94-8.76l-23.26.75Z"/><path class="cls-10" d="M163.58,172.81c0,83.71-39.56,89.41-39.56,89.41l-.24-4.17c39.62-15.14,35.37-88,35.37-88S163.58,170.78,163.58,172.81Z"/><path class="cls-7" d="M115.2,259.89h13.94a0,0,0,0,1,0,0v16.94a0,0,0,0,1,0,0H115.2a4.1,4.1,0,0,1-4.1-4.1V264a4.1,4.1,0,0,1,4.1-4.1Z" transform="translate(-118.08 96.01) rotate(-30)"/><rect class="cls-7" x="106" y="271.64" width="8.81" height="7.13" transform="translate(-132.28 104.82) rotate(-33.07)"/><path class="cls-7" d="M103.73,272.48h5.09a1.86,1.86,0,0,1,1.86,1.86v5.91a1.86,1.86,0,0,1-1.86,1.86h-5.09a0,0,0,0,1,0,0v-9.63a0,0,0,0,1,0,0Z" transform="translate(-133.94 103.41) rotate(-33.07)"/><path class="cls-7" d="M111.73,263.44l-.21-.28a2.13,2.13,0,0,1,.66-3.21l3.51-1.9a1.21,1.21,0,0,1,1.53.33l1,1.3Z"/><rect class="cls-7" x="103.54" y="274.13" width="1.09" height="10.29" transform="translate(-135.52 102.03) rotate(-33.07)"/><path class="cls-10" d="M107.22,283.06a5.82,5.82,0,0,1-.94-1.11c-.54-.71-1.26-1.72-2-2.87s-1.37-2.22-1.8-3a5.72,5.72,0,0,1-.62-1.32,8.37,8.37,0,0,1,.81,1.2l1.87,3,1.92,2.92A6.77,6.77,0,0,1,107.22,283.06Z"/><path class="cls-10" d="M112.12,278.57c-.09,0-.73-1.47-1.81-3.18s-2.16-2.94-2.09-3a10.68,10.68,0,0,1,2.35,2.84A11,11,0,0,1,112.12,278.57Z"/><path class="cls-10" d="M115.1,270.6a15,15,0,0,1-2.56,1.78,15.49,15.49,0,0,1-2.72,1.5,16.37,16.37,0,0,1,2.56-1.77A16,16,0,0,1,115.1,270.6Z"/><path class="cls-10" d="M116.22,272.07a16.36,16.36,0,0,1-2.7,1.83,18.13,18.13,0,0,1-2.87,1.55,16.9,16.9,0,0,1,2.71-1.82A17,17,0,0,1,116.22,272.07Z"/><path class="cls-10" d="M116.39,274.39a13.23,13.23,0,0,1-2.34,1.58,11.75,11.75,0,0,1-2.5,1.32,13.72,13.72,0,0,1,2.34-1.58A12,12,0,0,1,116.39,274.39Z"/><path class="cls-10" d="M115.54,276.35a6.94,6.94,0,0,0,.73-1.33,3.68,3.68,0,0,0-3.47-5,7.08,7.08,0,0,0-1.5.21,1.17,1.17,0,0,1,.37-.2,3.22,3.22,0,0,1,1.13-.23,3.78,3.78,0,0,1,3.67,5.32,3.32,3.32,0,0,1-.61,1C115.68,276.27,115.56,276.36,115.54,276.35Z"/><path class="cls-14" d="M112.12,260.89a9.67,9.67,0,0,0,.62,1.33l3.65-2.13-.66-1.22Z"/><path class="cls-10" d="M112.73,262.24v0a9.1,9.1,0,0,1-.63-1.34h0l3.63-2v0l.66,1.23h0Zm-.6-1.34a10,10,0,0,0,.62,1.29l3.62-2.11-.64-1.19Z"/><path class="cls-10" d="M126.07,274.94a.78.78,0,0,1-.75.15c-.55-.08-1.06-.71-1.49-1.45l-3.52-5.88c-.36-.57-.63-1.17-1-1.65a1.56,1.56,0,0,0-1.46-.66,2.78,2.78,0,0,1-1.66-.31,2.49,2.49,0,0,1-1-1.07,2.4,2.4,0,0,1,0-2.08,2.34,2.34,0,0,1,.31-.48c.09-.1.15-.14.15-.13a6.87,6.87,0,0,0-.35.66,2.35,2.35,0,0,0,.09,1.93,2.38,2.38,0,0,0,2.49,1.19,2.2,2.2,0,0,1,.93.14,2,2,0,0,1,.77.62,18.13,18.13,0,0,1,1,1.69l3.44,5.91c.41.77.85,1.34,1.33,1.45A1.18,1.18,0,0,0,126.07,274.94Z"/><path class="cls-10" d="M128.32,263.83a8.84,8.84,0,0,1,1.06,1.92c.59,1.23,1.41,2.87,2.21,4.83a2.14,2.14,0,0,1-.09,1.65,3.15,3.15,0,0,1-1,1.12,9.16,9.16,0,0,1-2.2,1,6.68,6.68,0,0,0-1.86,1c-.08,0,.42-.85,1.71-1.39a10.63,10.63,0,0,0,2.07-1.05,1.91,1.91,0,0,0,.88-2.22A59.52,59.52,0,0,1,128.32,263.83Z"/><path class="cls-7" d="M121,240.3s14.34-13.17,17.74-22.86,3-17.44-.36-27.14c-2.21-6.41-9.43-12.38-15.83-14.64a50.06,50.06,0,0,1,7-3.94s16.19,9,18.58,26C151.2,220.11,143.08,237.69,121,240.3Z"/><path class="cls-4" d="M129.37,179.82c-5.9-3.42-8.48-3.19-8.37-3.13-3.57,2.5-7.66,7.46-7.27,17,.4,9.88,3.72,29,6.37,42.89a16.26,16.26,0,0,0,19.84,12.76l51.72-12.65-1.9-11.53-47.2.69-4.94-33.42S134.41,182.75,129.37,179.82Z"/><path class="cls-7" d="M120.23,237.19a2.81,2.81,0,0,1,.13.38c.08.25.17.63.34,1.11a15.14,15.14,0,0,0,2,4,13.88,13.88,0,0,0,5.46,4.4,23.26,23.26,0,0,0,9.18,1.91,32.68,32.68,0,0,0,5.5-.34,29,29,0,0,0,2.86-.64l3-.76L161.67,244l29.93-7.51-.2.3c-.4-2.47-.84-5.1-1.27-7.76-.21-1.27-.42-2.53-.63-3.77l.26.21-47.19.64h-.19l0-.18c-.88-5.31-1.47-10.17-2-14.46s-1-8-1.44-11-.89-5.4-1.19-7c-.16-.78-.27-1.39-.36-1.83s-.1-.62-.1-.62.06.2.16.61l.42,1.81c.34,1.6.81,4,1.3,7s1,6.75,1.54,11,1.16,9.14,2.06,14.43l-.21-.17,47.2-.74H190l0,.22c.2,1.24.41,2.51.62,3.78.44,2.65.87,5.28,1.27,7.75l0,.24-.23.06-29.94,7.45-13,3.21-3,.74c-1,.22-1.93.52-2.9.64a32.19,32.19,0,0,1-5.56.3,23.43,23.43,0,0,1-9.29-2,14.09,14.09,0,0,1-5.5-4.53,14.6,14.6,0,0,1-2-4c-.16-.49-.23-.88-.3-1.13A2.41,2.41,0,0,1,120.23,237.19Z"/><path class="cls-10" d="M165.73,225.66h0l63.77-1.3a4.72,4.72,0,0,0,4.58-4.08l3.43-25.38a4.71,4.71,0,0,0-4.67-5.34l-34,0a4.72,4.72,0,0,0-4.7,4.29l-2.24,25-23.34,3.59A3.31,3.31,0,0,0,165.73,225.66Z"/><path class="cls-2" d="M206.08,199.28c-.39.32-7.42,9.85-7.42,9.85l3.25-.37-2.65,7.55,8.76-11-3.26,0Z"/><path class="cls-4" d="M205.28,200.86c-.39.31-5.5,7.57-5.5,7.57l2.92-.37-2.92,7.19,7.11-9.44h-2.84Z"/><circle class="cls-2" cx="200.39" cy="199.46" r="2.35"/><circle class="cls-7" cx="200.39" cy="199.46" r="2.08"/><circle class="cls-2" cx="216.9" cy="207.6" r="1.88"/></g><g id="Plants"><path class="cls-4" d="M295.74,432.1c-6-3.6-7.64-14.43-5.1-20.93s6.95-12.43,7.66-19.37c.55-5.34-1.16-10.83.11-16,1.72-7,8.62-12.45,8.59-19.69,0-4.06-2.31-7.89-2.11-11.95.26-5,4.1-8.9,6.49-13.27,3.66-6.7,3.94-14.63,5.23-22.15s4.19-15.56,10.88-19.22c.95,6.4,2.61,10.78,2,19.43-.21,3.11-3.85,9-4.38,15.85-.32,4.07-.55,8.15-.82,12.22s-.54,8-2,11.7c-1.1,2.84-2.87,5.41-3.69,8.34-1.55,5.51.41,11.5-.85,17.09-1.07,4.73-4.37,8.79-5.07,13.6-1,6.74,3.35,13.78,1.08,20.21-1.13,3.19-3.77,5.74-4.54,9-.59,2.56,0,5.27-.51,7.84-.87,4.14-8.79,7.58-13,7.3"/><path class="cls-7" d="M325.8,295.81a1.59,1.59,0,0,1,0,.36c0,.27-.08.62-.14,1.05-.14.93-.3,2.28-.63,4s-1.26,3.74-2,6.13-1.55,5.12-2.25,8.2-1.29,6.47-1.91,10.14-1.3,7.65-3.14,11.46c-.85,1.91-1.81,3.82-2.53,5.86a26.52,26.52,0,0,0-1.3,6.48,132.77,132.77,0,0,1-1.84,14c-1.89,9.46-3.69,18.47-5.33,26.66s-3.28,15.52-4.59,21.72S297.72,423,297,426.49c-.38,1.69-.68,3-.89,4-.1.42-.18.76-.24,1a1.87,1.87,0,0,1-.1.34,1.41,1.41,0,0,1,0-.36c.05-.26.11-.61.19-1,.18-.95.44-2.29.77-4,.71-3.5,1.72-8.5,3-14.67s2.79-13.56,4.47-21.74,3.41-17.2,5.28-26.65a131.71,131.71,0,0,0,1.84-13.92,27.34,27.34,0,0,1,1.35-6.6c.74-2.09,1.71-4,2.56-5.91,1.83-3.75,2.49-7.67,3.16-11.32s1.26-7.07,2-10.15,1.53-5.83,2.34-8.21,1.72-4.36,2.09-6.07.55-3.09.73-4c.09-.43.15-.77.2-1A1.8,1.8,0,0,1,325.8,295.81Z"/></g></svg>